<?xml version="1.0" encoding="utf-8"?><svg viewBox="0 0 512 512" xmlns="http://www.w3.org/2000/svg" xmlns:xlink="http://www.w3.org/1999/xlink"><style>:root>svg{display:none}:root>svg:target{display:block}</style><svg viewBox="0 0 20 20" id="checked" xmlns="http://www.w3.org/2000/svg"><path d="M10 0C4.5 0 0 4.5 0 10s4.5 10 10 10 10-4.5 10-10S15.5 0 10 0zm5.6 7.3-6.4 6.3c-.4.4-1 .4-1.4 0l-3.4-3.1c-.4-.4-.4-1-.1-1.4.4-.4 1-.4 1.4-.1l2.7 2.5 5.7-5.7c.4-.4 1-.4 1.4 0 .5.5.5 1.1.1 1.5z" fill="#23a79c"/></svg><svg version="1.1" id="clock" x="0" y="0" viewBox="0 0 12 12" xml:space="preserve" xmlns="http://www.w3.org/2000/svg"><style>.cst0{fill:#fff}</style><path class="cst0" d="M6 0C2.7 0 0 2.7 0 6s2.7 6 6 6 6-2.7 6-6-2.7-6-6-6zm0 11.2C3.1 11.2.8 8.8.8 6S3.1.8 6 .8s5.2 2.4 5.2 5.2-2.3 5.2-5.2 5.2z"/><path class="cst0" d="M6.4 2.3h-.8v3.9L8 8.5l.5-.5-2.1-2.2V2.3z"/></svg><svg version="1.1" id="clock_(1)" x="0" y="0" viewBox="0 0 50 50" xml:space="preserve" xmlns="http://www.w3.org/2000/svg"><style>.bst0{fill:#64e1dc}.bst4{fill:#00c8c8}</style><path class="bst0" d="M25 0C11.3 0 0 11.3 0 25s11.3 25 25 25 25-11.3 25-25S38.7 0 25 0z"/><path d="M50 25c0 13.7-11.3 25-25 25V0c13.7 0 25 11.3 25 25z" fill="#23a79c"/><path d="M25 6C14.5 6 6 14.5 6 25s8.6 19 19 19 19-8.6 19-19c0-10.5-8.5-19-19-19z" fill="#e0f4ff"/><path d="M44 25c0 10.5-8.6 19-19 19V6c10.5 0 19 8.5 19 19z" fill="#bbdcff"/><path class="bst0" d="M23.5 11.8h2.9v2.9h-2.9v-2.9zm0 23.5h2.9v2.9h-2.9v-2.9zm-6.8-20.7 2.1 2.1-2.1 2.1-2.1-2.1 2.1-2.1z"/><path class="bst4" d="m33.3 31.2 2.1 2.1-2.1 2.1-2.1-2.1 2.1-2.1z"/><path class="bst0" d="M11.8 23.5h2.9v2.9h-2.9v-2.9z"/><path class="bst4" d="M35.3 23.5h2.9v2.9h-2.9v-2.9z"/><path class="bst0" d="m16.7 31.2 2.1 2.1-2.1 2.1-2.1-2.1 2.1-2.1z"/><path class="bst4" d="m33.3 14.6 2.1 2.1-2.1 2.1-2.1-2.1 2.1-2.1z"/><path d="m30.2 28.1-2.1 2.1-4.6-4.6v-7.9h2.9v6.7l3.8 3.7z" fill="#537983"/><path class="bst4" d="M25 11.8h1.5v2.9H25v-2.9zm0 23.5h1.5v2.9H25v-2.9z"/><path d="m30.2 28.1-2.1 2.1-3.1-3.1v-9.4h1.5v6.7l3.7 3.7z" fill="#3e5959"/></svg><svg version="1.1" id="clock_2" x="0" y="0" viewBox="0 0 50 50" xml:space="preserve" xmlns="http://www.w3.org/2000/svg"><style>.dst0{fill:#64e1dc}.dst4{fill:#00c8c8}</style><path class="dst0" d="M25 0C11.3 0 0 11.3 0 25s11.3 25 25 25 25-11.3 25-25S38.7 0 25 0z"/><path d="M50 25c0 13.7-11.3 25-25 25V0c13.7 0 25 11.3 25 25z" fill="#23a79c"/><path d="M25 6C14.5 6 6 14.5 6 25s8.6 19 19 19 19-8.6 19-19c0-10.5-8.5-19-19-19z" fill="#e0f4ff"/><path d="M44 25c0 10.5-8.6 19-19 19V6c10.5 0 19 8.5 19 19z" fill="#bbdcff"/><path class="dst0" d="M23.5 11.8h2.9v2.9h-2.9v-2.9zm0 23.5h2.9v2.9h-2.9v-2.9zm-6.8-20.7 2.1 2.1-2.1 2.1-2.1-2.1 2.1-2.1z"/><path class="dst4" d="m33.3 31.2 2.1 2.1-2.1 2.1-2.1-2.1 2.1-2.1z"/><path class="dst0" d="M11.8 23.5h2.9v2.9h-2.9v-2.9z"/><path class="dst4" d="M35.3 23.5h2.9v2.9h-2.9v-2.9z"/><path class="dst0" d="m16.7 31.2 2.1 2.1-2.1 2.1-2.1-2.1 2.1-2.1z"/><path class="dst4" d="m33.3 14.6 2.1 2.1-2.1 2.1-2.1-2.1 2.1-2.1z"/><path d="m30.2 28.1-2.1 2.1-4.6-4.6v-7.9h2.9v6.7l3.8 3.7z" fill="#537983"/><path class="dst4" d="M25 11.8h1.5v2.9H25v-2.9zm0 23.5h1.5v2.9H25v-2.9z"/><path d="m30.2 28.1-2.1 2.1-3.1-3.1v-9.4h1.5v6.7l3.7 3.7z" fill="#3e5959"/></svg><svg version="1.1" id="house" x="0" y="0" viewBox="0 0 60 60" xml:space="preserve" xmlns="http://www.w3.org/2000/svg"><style>.est3{fill:#23a79c}.est7{fill:#7f8c8d}</style><g id="ePage-1"><g id="e_x30_25---Boiler" transform="translate(0 -1)"><path id="eShape" d="M53.8 26.6V60c0 .6-.5 1-1 1H7.2c-.6 0-1-.5-1-1V26.6L30 6.9l23.8 19.7z" fill="#f5efca"/><path id="eShape_1_" d="M46.6 15.5V8.2c0-.6.5-1 1-1h5.2c.6 0 1 .5 1 1v13.2l-7.2-5.9z" fill="#048777"/><path id="eShape_2_" d="M53.8 26.6v4.2l-1.3-1.1L30 11.2 7.5 29.8l-1.3 1.1v-4.2L30 6.9l23.8 19.7z" fill="#e4c05c"/><path id="eShape_3_" class="est3" d="m59.7 26.8-2.6 2.9c-.4.4-1 .5-1.4.1l-1.9-1.6L30 8.5 6.2 28.2l-1.9 1.6c-.4.4-1.1.3-1.4-.1L.3 26.8c-.2-.2-.3-.5-.3-.8 0-.3.2-.5.4-.7l28.9-24c.4-.3 1-.3 1.3 0l28.9 24c.2.2.4.4.4.7.1.3 0 .6-.2.8z"/><path id="eShape_4_" d="M41.4 43.4v6.2c0 1.1-.9 2.1-2.1 2.1H20.7c-1.1 0-2.1-.9-2.1-2.1v-6.2h22.8z" fill="#84b5cb"/><path id="eShape_5_" d="M41.4 24.8v18.6H18.6V24.8c0-2.3 5.1-4.1 11.4-4.1s11.4 1.8 11.4 4.1z" fill="#9fc9d3"/><path id="eRectangle-path" class="est3" d="M25.9 40.3h8.3c.6 0 1 .5 1 1v4.1c0 .6-.5 1-1 1h-8.3c-.6 0-1-.5-1-1v-4.1c-.1-.5.4-1 1-1z"/><path id="eShape_6_" d="M34.1 47.6h-8.3c-1.1 0-2.1-.9-2.1-2.1v-4.1c0-1.1.9-2.1 2.1-2.1h8.3c1.1 0 2.1.9 2.1 2.1v4.1c0 1.1-.9 2.1-2.1 2.1zm-8.2-6.3v4.1h8.3v-4.1h-8.3z" fill="#3b97d3"/><path id="eShape_7_" class="est7" d="M21.7 51.7h4.1v3.1c0 1.1-.9 2.1-2.1 2.1s-2.1-.9-2.1-2.1v-3.1z"/><path id="eShape_8_" class="est7" d="M34.1 51.7h4.1v3.1c0 1.1-.9 2.1-2.1 2.1-1.1 0-2.1-.9-2.1-2.1v-3.1z"/></g></g></svg><svg version="1.1" id="investment" x="0" y="0" viewBox="0 0 40 48.8" xml:space="preserve" xmlns="http://www.w3.org/2000/svg"><style>.fst0{fill:#23a79c}.fst1{fill:#1bc1ad}.fst2{fill:#ff7452}.fst3{fill:#fb9d46}.fst4{fill:#fdba4c}.fst5{fill:#ffd652}.fst6{fill:#fbe287}</style><path class="fst0" d="M20 14.3 19 25h2.4V13.3z"/><path class="fst1" d="M18.6 13.3V25H20V14.3z"/><path class="fst0" d="M20 14.3c7.9 0 14.3-6.4 14.3-14.3C26.4 0 20 6.4 20 14.3z"/><path class="fst1" d="M5.7 0c0 7.9 6.4 14.3 14.3 14.3C20 6.4 13.6 0 5.7 0z"/><path class="fst2" d="m34.3 42.3-1 3.2 1 3.3h2.8v-6.5z"/><path class="fst3" d="m31.4 42.3-.9 3.2.9 3.3h2.9v-6.5z"/><path class="fst2" d="m28.6 40.4-1 5.1 1 3.3h2.8v-8.4z"/><path class="fst3" d="m25.7 40.4-.9 5.1.9 3.3h2.9v-8.4z"/><path class="fst2" d="m22.9 40.4-1 5.1 1 3.3h2.8v-8.4z"/><path class="fst3" d="m20 40.4-1 5.1 1 3.3h2.9v-8.4z"/><path class="fst4" d="m17.1 40.4-.9 5.1.9 3.3H20v-8.4z"/><path class="fst3" d="m14.3 40.4-1 5.1 1 3.3h2.8v-8.4z"/><path class="fst4" d="m11.4 40.4-.9 5.1.9 3.3h2.9v-8.4z"/><path class="fst3" d="m8.6 40.4-1 5.1 1 3.3h2.8v-8.4z"/><path class="fst4" d="M5.7 40.4h2.9v8.3H5.7z"/><path class="fst3" d="m37.1 29.5-.9 3.2.9 3.2H40v-6.4z"/><path class="fst2" d="m34.3 27.6-1 5.1 1 3.2h2.8v-6.4z"/><path class="fst3" d="m31.4 27.6-.9 5.1.9 3.2h2.9v-8.3z"/><path class="fst2" d="m28.6 27.6-1 5.1 1 5.1h2.8V27.6z"/><path class="fst3" d="m25.7 27.6-.9 5.1.9 5.1h2.9V27.6z"/><path class="fst2" d="m22.9 27.6-1 5.1 1 5.1h2.8V27.6z"/><path class="fst3" d="m20 27.6-1 5.1 1 5.1h2.9V27.6z"/><path class="fst4" d="m17.1 27.6-.9 5.1.9 5.1H20V27.6z"/><path class="fst5" d="m14.3 27.6-1 5.1 1 5.1h2.8V27.6z"/><path class="fst4" d="m11.4 27.6-.9 5.1.9 5.1h2.9V27.6z"/><path class="fst5" d="M8.6 27.6h2.9v10.2H8.6z"/><path class="fst3" d="m34.3 23-1 3.3 1 3.2h2.8V23z"/><path class="fst4" d="m31.4 23-.9 3.3.9 3.2h2.9V23z"/><path class="fst3" d="m28.6 23-1 3.3 1 3.2h2.8V23z"/><path class="fst4" d="m25.7 23-.9 3.3.9 3.2h2.9V23z"/><path class="fst3" d="m22.9 23-1 3.3 1 3.2h2.8V23z"/><path class="fst4" d="m20 23-1 3.3 1 3.2h2.9V23z"/><path class="fst5" d="m17.1 23-.9 3.3.9 3.2H20V23z"/><path class="fst6" d="m14.3 23-1 3.3 1 3.2h2.8V23z"/><path class="fst5" d="m11.4 23-.9 3.3.9 3.2h2.9V23z"/><path class="fst6" d="m8.6 23-1 3.3 1 3.2h2.8V23z"/><path class="fst5" d="M5.7 23h2.9v6.4H5.7z"/><path class="fst3" d="m28.6 35.9-1 3.2 1 3.2h2.8v-6.4z"/><path class="fst4" d="m25.7 35.9-.9 3.2.9 3.2h2.9v-6.4z"/><path class="fst3" d="m22.9 35.9-1 3.2 1 3.2h2.8v-6.4z"/><path class="fst4" d="m20 35.9-1 3.2 1 3.2h2.9v-6.4z"/><path class="fst5" d="m17.1 35.9-.9 3.2.9 3.2H20v-6.4z"/><path class="fst6" d="m14.3 35.9-1 3.2 1 3.2h2.8v-6.4z"/><path class="fst5" d="m11.4 35.9-.9 3.2.9 3.2h2.9v-6.4z"/><path class="fst6" d="m8.6 35.9-1 3.2 1 3.2h2.8v-6.4z"/><path class="fst5" d="m5.7 35.9-.9 3.2.9 3.2h2.9v-6.4z"/><path class="fst6" d="m2.9 35.9-1 3.2 1 3.2h2.8v-6.4z"/><path class="fst5" d="M0 35.9h2.9v6.4H0z"/></svg><svg data-name="Capa 1" viewBox="0 0 17.06 12" id="mail" xmlns="http://www.w3.org/2000/svg"><path d="M15.56 0H1.5A1.5 1.5 0 0 0 0 1.5v9A1.5 1.5 0 0 0 1.5 12h14.06a1.5 1.5 0 0 0 1.5-1.5v-9a1.5 1.5 0 0 0-1.5-1.5zm-.21 1L9.59 6.73a1.5 1.5 0 0 1-2.12 0L1.71 1zM1 10.29V1.7L5.32 6zm.71.71L6 6.71l.73.73a2.51 2.51 0 0 0 3.54 0l.73-.73L15.35 11zm14.35-.71L11.74 6l4.32-4.3z" fill="#fff"/></svg><svg viewBox="0 0 512 512" id="phone-call" xmlns="http://www.w3.org/2000/svg"><path d="M480.6 361.6c-1.3-1-96.6-69.7-122.7-64.8-12.5 2.2-19.6 10.7-33.9 27.8-2.3 2.8-7.8 9.3-12.1 14-9-3-17.9-6.5-26.4-10.8-44.1-21.5-79.7-57.1-101.1-101.1-4.2-8.5-7.8-17.4-10.8-26.4 4.7-4.3 11.3-9.9 14.1-12.2 17-14.2 25.5-21.4 27.7-33.9 4.5-25.9-64.1-121.8-64.8-122.7-6.3-9-16.3-14.7-27.3-15.5C95.4 16 16 119 16 136.3c0 1 1.5 103.5 127.8 232C272.2 494.5 374.7 496 375.7 496 393 496 496 416.6 496 388.8c-.8-10.9-6.5-20.9-15.4-27.2z"/></svg><svg viewBox="0 0 512 512" id="phone-call_(2)" xmlns="http://www.w3.org/2000/svg"><path d="M480.6 361.6c-1.3-1-96.6-69.7-122.7-64.8-12.5 2.2-19.6 10.7-33.9 27.8-2.3 2.8-7.8 9.3-12.1 14-9-3-17.9-6.5-26.4-10.8-44.1-21.5-79.7-57.1-101.1-101.1-4.2-8.5-7.8-17.4-10.8-26.4 4.7-4.3 11.3-9.9 14.1-12.2 17-14.2 25.5-21.4 27.7-33.9 4.5-25.9-64.1-121.8-64.8-122.7-6.3-9-16.3-14.7-27.3-15.5C95.4 16 16 119 16 136.3c0 1 1.5 103.5 127.8 232C272.2 494.5 374.7 496 375.7 496 393 496 496 416.6 496 388.8c-.8-10.9-6.5-20.9-15.4-27.2z"/></svg><svg version="1.1" id="placeholder" x="0" y="0" viewBox="0 0 10 14.2" xml:space="preserve" xmlns="http://www.w3.org/2000/svg"><style>.jst0{fill:#fff}</style><path class="jst0" d="M5 0C2.2 0 0 2.2 0 5c0 .9.3 1.8.7 2.6l4 6.4c.1.1.2.2.4.2.1 0 .3-.1.4-.2l3.9-6.5c.4-.7.6-1.6.6-2.5 0-2.8-2.2-5-5-5zm3.6 7.1L5.1 13 1.5 7.2C1 6.5.8 5.8.8 5 .8 2.7 2.7.8 5 .8S9.2 2.7 9.2 5c0 .8-.2 1.5-.6 2.1z"/><path class="jst0" d="M5 2.5C3.6 2.5 2.5 3.6 2.5 5S3.6 7.5 5 7.5 7.5 6.4 7.5 5 6.4 2.5 5 2.5zm0 4.2c-.9 0-1.7-.8-1.7-1.7 0-.9.8-1.7 1.7-1.7s1.7.8 1.7 1.7c0 .9-.8 1.7-1.7 1.7z"/></svg><svg version="1.1" id="radiator" x="0" y="0" viewBox="0 0 60 60" xml:space="preserve" xmlns="http://www.w3.org/2000/svg"><style>.kst0{fill:#bdc3c7}</style><path class="kst0" d="M6.2 18.6H2.1c-1.1 0-2.1.9-2.1 2.1v32.1c0 1.1.9 2.1 2.1 2.1H58c1.1 0 2.1-.9 2.1-2.1V20.7c0-1.1-.9-2.1-2.1-2.1H6.2z"/><path d="M7.8 18.6H4c-1.1 0-2 1-1.9 2.1v32.1c0 1.1.8 2 1.9 2.1h52c1.1 0 2-1 1.9-2.1V20.7c0-1.1-.8-2-1.9-2.1H7.8z" fill="#e6e7e8"/><path class="kst0" d="M5.2 51.7c-.6 0-1-.5-1-1V24.8c0-.6.5-1 1-1s1 .5 1 1v25.9c0 .6-.5 1-1 1zm4.1 0c-.6 0-1-.5-1-1V24.8c0-.6.5-1 1-1s1 .5 1 1v25.9c0 .6-.4 1-1 1zm4.1 0c-.6 0-1-.5-1-1V24.8c0-.6.5-1 1-1s1 .5 1 1v25.9c.1.6-.4 1-1 1zm4.2 0c-.6 0-1-.5-1-1V24.8c0-.6.5-1 1-1s1 .5 1 1v25.9c0 .6-.4 1-1 1zm4.1 0c-.6 0-1-.5-1-1V24.8c0-.6.5-1 1-1s1 .5 1 1v25.9c.1.6-.4 1-1 1zm4.2 0c-.6 0-1-.5-1-1V24.8c0-.6.5-1 1-1 .6 0 1 .5 1 1v25.9c0 .6-.5 1-1 1zm4.1 0c-.6 0-1-.5-1-1V24.8c0-.6.5-1 1-1s1 .5 1 1v25.9c0 .6-.4 1-1 1zm4.1 0c-.6 0-1-.5-1-1V24.8c0-.6.5-1 1-1 .6 0 1 .5 1 1v25.9c.1.6-.4 1-1 1zm4.2 0c-.6 0-1-.5-1-1V24.8c0-.6.5-1 1-1s1 .5 1 1v25.9c0 .6-.5 1-1 1zm4.1 0c-.6 0-1-.5-1-1V24.8c0-.6.5-1 1-1s1 .5 1 1v25.9c0 .6-.4 1-1 1zm4.2 0c-.6 0-1-.5-1-1V24.8c0-.6.5-1 1-1s1 .5 1 1v25.9c0 .6-.5 1-1 1zm4.1 0c-.6 0-1-.5-1-1V24.8c0-.6.5-1 1-1s1 .5 1 1v25.9c0 .6-.4 1-1 1zm4.1 0c-.6 0-1-.5-1-1V24.8c0-.6.5-1 1-1s1 .5 1 1v25.9c.1.6-.4 1-1 1z"/><path d="M4.1 54.8h4.1v3.1c0 1.1-.9 2.1-2.1 2.1S4 59.1 4 57.9v-3.1zm47.6 0h4.1v3.1c0 1.1-.9 2.1-2.1 2.1s-2.1-.9-2.1-2.1v-3.1z" fill="#95a5a5"/><path d="M6.1 8.3H4.2c-.4 0-.8-.3-1-.7-.2-.4-.1-.8.2-1.2L8.5.3c.2-.2.5-.3.8-.3s.6.1.8.4l5.1 6.1c.3.3.3.8.2 1.2-.2.4-.6.7-1 .7h-2v11.4c0 .6-.5 1-1 1H7.2c-.6 0-1-.5-1-1V8.3h-.1zm41.4 0h-1.9c-.4 0-.8-.3-1-.7-.2-.4-.1-.8.2-1.2L49.9.3c.2-.2.5-.3.8-.3s.6.1.8.4l5.1 6.1c.3.3.3.8.2 1.2-.2.4-.6.7-1 .7h-2v11.4c0 .6-.5 1-1 1h-4.1c-.6 0-1-.5-1-1V8.3h-.2zm-25.8 7.2c-.4 0-.8-.2-1-.6-.2-.4-.1-.8.2-1.1.5-.7.8-1.5.7-2.4 0-.9-.2-1.7-.7-2.4-.9-1.1-1.4-2.4-1.3-3.8-.1-1.4.4-2.8 1.3-3.8.3-.3.6-.4 1-.3s.6.4.7.7 0 .7-.3 1c-.5.7-.8 1.5-.7 2.4 0 .9.2 1.7.7 2.4.9 1.1 1.4 2.4 1.3 3.8.1 1.4-.4 2.8-1.3 3.8 0 .2-.3.3-.6.3zm8.3 0c-.4 0-.8-.2-1-.6-.2-.4-.1-.8.2-1.1.5-.7.8-1.5.7-2.4 0-.9-.2-1.7-.7-2.4-.9-1.1-1.4-2.4-1.3-3.8-.1-1.4.4-2.8 1.3-3.8.3-.3.6-.4 1-.3s.6.4.7.7 0 .7-.3 1c-.4.7-.6 1.5-.6 2.4 0 .9.2 1.7.7 2.4.9 1.1 1.4 2.4 1.3 3.8.1 1.4-.4 2.8-1.3 3.8-.2.2-.4.3-.7.3zm8.3 0c-.4 0-.8-.2-1-.6s-.1-.8.2-1.1c.5-.7.8-1.5.7-2.4 0-.9-.2-1.7-.7-2.4-.9-1.1-1.4-2.4-1.3-3.8-.1-1.4.4-2.8 1.3-3.8.3-.3.6-.4 1-.3s.6.4.7.7 0 .7-.3 1c-.5.7-.8 1.5-.7 2.4 0 .9.2 1.7.7 2.4.9 1.1 1.4 2.4 1.3 3.8.1 1.4-.4 2.8-1.3 3.8-.1.2-.3.3-.6.3z" fill="#18a090"/></svg><svg version="1.1" id="road-sign" x="0" y="0" viewBox="0 0 50.1 50.1" xml:space="preserve" xmlns="http://www.w3.org/2000/svg"><style>.lst0{fill:#fff}.lst1{fill:#89ccff}.lst2{fill:#23a79c}</style><g id="l_x30_5_x2C__Direction_x2C__Arrow_x2C__directional_x2C__next_x2C__right_and_left_arrow"><path class="lst0" d="m20.6 26.5 2.4 5.7-2.4 6c0-4.9-4-8.8-8.8-8.8l-1.9-4.2 1.9-4.6h2.9c3.3 0 5.9 2.7 5.9 5.9zm17.7-.9 1.7 4.7-1.7 4.1c-4.9 0-8.8 4-8.8 8.8l-1.9-6 1.9-5.7c0-3.3 2.6-5.9 5.9-5.9h2.9z"/><path class="lst1" d="m49.1 30-10.8 8.4V21.7L49.1 30zm-37.3 3.4L1 25.1l10.8-8.4v16.7z"/><path class="lst0" d="M29.5 49.1h-8.8V11.8l4.4-3.4 4.4 3.4v37.3z"/><path class="lst1" d="m25.1 1 8.4 10.8H16.8L25.1 1z"/><path class="lst2" d="M33.4 12.8H16.7c-.4 0-.7-.2-.9-.5-.2-.3-.1-.7.1-1L24.3.5c.4-.5 1.2-.5 1.6 0l8.4 10.8c.2.3.3.7.1 1-.3.3-.6.5-1 .5zm-14.7-2h12.7L25 2.6l-6.3 8.2zm18.6 27.5V21.6c0-.4.2-.7.5-.9.3-.2.7-.1 1 .1l10.8 8.4c.5.4.5 1.2 0 1.6l-10.8 8.4c-.5.4-1.5-.1-1.5-.9zm2-14.7v12.7l8.2-6.4-8.2-6.3z"/><path class="lst2" d="M29.5 41.3c-.5 0-1-.4-1-1v-8.8c0-3.8 3.1-6.9 6.9-6.9h2.9c.5 0 1 .4 1 1 0 .5-.4 1-1 1h-2.9c-2.7 0-4.9 2.2-4.9 4.9v8.8c0 .5-.5 1-1 1z"/><path class="lst2" d="M29.5 45.2c-.5 0-1-.4-1-1v-1c0-5.4 4.4-9.8 9.8-9.8.5 0 1 .4 1 1s-.4 1-1 1c-4.3 0-7.9 3.5-7.9 7.9v1c.1.5-.4.9-.9.9zm-18.3-11L.4 25.8c-.5-.4-.5-1.2 0-1.6l10.8-8.4c.3-.2.7-.3 1-.1.3.2.5.5.5.9v16.7c0 .4-.2.7-.5.9-.3.3-.7.2-1 0zm-8.6-9.1 8.2 6.4V18.7l-8.2 6.4z"/><path class="lst2" d="M20.6 36.4c-.5 0-1-.4-1-1v-8.8c0-2.7-2.2-4.9-4.9-4.9h-2.9c-.5 0-1-.4-1-1s.4-1 1-1h2.9c3.8 0 6.9 3.1 6.9 6.9v8.8c0 .5-.4 1-1 1z"/><path class="lst2" d="M20.6 40.3c-.5 0-1-.4-1-1v-1c0-4.3-3.5-7.9-7.9-7.9-.5 0-1-.4-1-1 0-.5.4-1 1-1 5.4 0 9.8 4.4 9.8 9.8v1c.1.7-.3 1.1-.9 1.1z"/><path class="lst2" d="M29.5 50.1h-8.8c-.5 0-1-.4-1-1V11.8c0-.5.4-1 1-1h8.8c.5 0 1 .4 1 1v37.3c0 .6-.5 1-1 1zm-7.9-1.9h6.9V12.8h-6.9v35.4z"/></g></svg><svg version="1.1" id="sketch" x="0" y="0" viewBox="0 0 60 59.8" xml:space="preserve" xmlns="http://www.w3.org/2000/svg"><style>.mst2{fill:#3c5156}.mst4{fill:#23a79c}.mst5{fill:#0e897a}</style><path d="M55 12.1H0v34.6c0 1.7.8 3.4 2 4.6 1.3 1.2 2.9 1.9 4.7 1.9h29c.2 0 .5-.1.6-.3l19.3-19.3c.2-.2.3-.4.3-.6V13c0-.5-.4-.9-.9-.9z" fill="#e0e0e2"/><path d="M15.9 35.2h3.6l2.9-9.1 14-14h-3.3l-14 14zM55 12.1h-2.9v25.1l3.6-3.6c.2-.2.3-.4.3-.6V13c-.1-.5-.5-.9-1-.9z" fill="#c6c5ca"/><path class="mst2" d="M40.1 35.9H15.7c-.5 0-.9-.4-.9-.9s.4-.9.9-.9h24.4c.5 0 .9.4.9.9s-.4.9-.9.9z"/><path d="M6.7 39.7c.4 0 .8 0 1.1.1V3.4c0-.5-.4-.9-.9-.9-3.8.1-6.9 3.2-6.9 7v36.1c.5-3.3 3.3-5.9 6.7-5.9z" fill="#919191"/><path class="mst4" d="M47.8 11.3 42.5 6c-.2-.2-.4-.3-.6-.3s-.4.2-.6.3L21.8 25.5l6.6 6.4 19.4-19.4c.4-.3.4-.8 0-1.2z"/><path class="mst5" d="m26 29.6 2.4 2.3 19.4-19.4c.3-.3.3-.9 0-1.2L46 9.5 26 29.6z"/><path d="M21.8 25.5c-.1.1-.1.2-.2.3L18.7 34c-.1.3 0 .7.2.9.2.2.4.3.6.3.1 0 .2 0 .3-.1l8.2-2.9c.2-.1.3-.2.4-.3l-6.6-6.4z" fill="#ffc89f"/><path d="M19.5 35.2c.1 0 .2 0 .3-.1l8.2-2.9c.2-.1.3-.2.4-.3L26 29.6 19.4 32l-.7 2c-.1.3 0 .7.2.9.2.2.4.3.6.3z" fill="#f7b081"/><path class="mst2" d="M19.5 35.2c.1 0 .2 0 .3-.1l5.2-1.8-4.5-4.4-1.8 5.1c-.1.3 0 .7.2.9.2.2.4.3.6.3z"/><path d="M22.5 30.9 19.4 32l-.7 2c-.1.3 0 .7.2.9.2.2.4.3.6.3.1 0 .2 0 .3-.1l5.2-1.8-2.5-2.4z" fill="#304144"/><path d="m50.7 8.4-5.3-5.3c-.3-.3-.9-.3-1.2 0l-3.5 3.5 6.5 6.5 3.5-3.5c.2-.2.3-.4.3-.6-.1-.2-.1-.4-.3-.6z" fill="#ff6137"/><path d="m44.8 10.8.8.8 1.6 1.6 3.5-3.5c.2-.2.3-.4.3-.6 0-.2-.1-.5-.3-.6l-1.8-1.8-4.1 4.1z" fill="#e04f32"/><path d="M53.1 3.5 50.4.8c-.6-.5-1.3-.8-2-.8s-1.4.3-1.9.8l-1.7 1.7-.6.6-.6.6 6.5 6.5.9-.8 2.1-2.1c.5-.5.8-1.2.8-1.9s-.3-1.4-.8-1.9z" fill="#546f7a"/><path d="m43.5 3.8 2 1.9zm9.6-.3-2.2-2.2c.4.5.5 1 .5 1.6 0 .7-.3 1.4-.8 1.9l-2 2.2-.9.9 2.4 2.4.9-.9 2.1-2.1c.5-.5.8-1.2.8-1.9s-.3-1.4-.8-1.9z" fill="#475d63"/><path class="mst4" d="M59.5 28.1c-.3-.1-.7-.1-1 .2l-30 30c-.3.3-.3.6-.2 1s.5.5.8.5h30c.5 0 .9-.4.9-.9V29c0-.4-.2-.7-.5-.9zM43.1 52.7l9.6-9.6v9.6h-9.6z"/><path class="mst5" d="M59.5 28.1c-.3-.1-.7-.1-1 .2l-2.3 2.3v29.2h2.9c.5 0 .9-.4.9-.9V29c0-.4-.2-.7-.5-.9z"/><path d="M60 38.9h-3.4c-.5 0-.9.4-.9.9s.4.9.9.9H60v-1.8zm0 4.4h-3.4c-.5 0-.9.4-.9.9s.4.9.9.9H60v-1.8zm0 4.4h-3.4c-.5 0-.9.4-.9.9s.4.9.9.9H60v-1.8zm0 4.4h-3.4c-.5 0-.9.4-.9.9s.4.9.9.9H60v-1.8z" fill="#c96e14"/></svg><svg viewBox="0 0 34 34.1" id="telephone" xmlns="http://www.w3.org/2000/svg"><path d="M6.9 22.7c3.4 4 7.4 7.2 12 9.4 1.8.8 4.1 1.8 6.7 2h.5c1.8 0 3.2-.6 4.3-1.9.4-.5.9-.9 1.4-1.4l1-1c1.5-1.6 1.5-3.6 0-5.1l-4.3-4.3c-.7-.7-1.6-1.1-2.5-1.1-.9 0-1.8.4-2.5 1.1L21.1 23c-.2-.1-.5-.3-.7-.4-.3-.1-.5-.3-.8-.4-2.3-1.5-4.4-3.4-6.4-5.8-1-1.3-1.7-2.4-2.2-3.5.7-.6 1.3-1.2 1.9-1.8l.7-.7c.8-.8 1.2-1.6 1.2-2.5s-.4-1.8-1.2-2.5l-2.1-2.1-.8-.8-1.4-1.4C8.6.4 7.7 0 6.8 0c-.9 0-1.7.4-2.5 1.1L1.6 3.7C.6 4.7.1 5.8 0 7.2c-.1 1.7.2 3.5 1 5.7 1.3 3.3 3.1 6.5 5.9 9.8zM1.8 7.4c0-1 .4-1.8 1.1-2.4l2.6-2.6c.4-.4.9-.6 1.3-.6s.9.2 1.3.6c.5.4.9.8 1.4 1.3.2.3.5.5.7.8l2.1 2.1c.5.4.7.9.7 1.3s-.2.9-.7 1.3l-.7.7c-.7.7-1.3 1.3-2 1.9-.6.6-.5 1.1-.4 1.6v.1c.5 1.3 1.3 2.6 2.5 4 2.1 2.6 4.4 4.6 6.8 6.2.3.2.6.4.9.5.3.1.5.3.8.4h.1c.2.1.5.2.7.2.6 0 .9-.4 1.1-.5l2.6-2.6c.4-.4.9-.6 1.3-.6.5 0 1 .3 1.3.6l4.3 4.3c.8.8.8 1.8 0 2.7l-.9.9-1.5 1.5c-.8.9-1.8 1.3-3 1.3h-.4c-2.3-.1-4.5-1.1-6.1-1.8-4.4-2.1-8.3-5.1-11.5-9-2.6-3.2-4.4-6.1-5.6-9.3-.7-1.9-1-3.5-.8-4.9z" fill="#fff"/></svg><svg version="1.1" id="underfloor-heating" x="0" y="0" viewBox="0 0 69.5 49.3" xml:space="preserve" xmlns="http://www.w3.org/2000/svg"><style>.ost0{fill:#fff}.ost1{fill:#23a79c}.ost2{fill:#b54e08}</style><path class="ost0" d="m.5 24.4 29.5 25 39.5-22.7-31.7-22L.5 24.4z"/><path class="ost0" d="m18.2 39.4 11.8 10 23.4-13.5m1.7-1.1.7-.4"/><path class="ost1" d="M29.8 44c-.6 0-1.2-.1-1.8-.5-2.7-1.5-18.3-15-18.9-15.6-.4-.3-.5-1-.1-1.4.4-.4 1-.4 1.5-.1C15 30.3 27 40.6 29.1 41.8c.9.5 2.8-.2 3.8-1.5.7-1 .7-1.8-.1-2.6-3.4-2.7-16.8-14-16.9-14.1-.4-.3-.5-1-.1-1.4.4-.4 1-.5 1.5-.1.1.1 13.6 11.4 16.8 14.2 1.7 1.4 1.8 3.4.4 5.2-1.1 1.4-3 2.5-4.7 2.5z"/><path class="ost2" d="M29.8 44.5c-.7 0-1.4-.2-2.1-.5-2.7-1.5-17.3-14.2-19-15.7-.6-.5-.7-1.5-.2-2.1v-.1c.6-.6 1.5-.7 2.2-.1 6.2 5.4 16.7 14.3 18.5 15.3.6.4 2.3-.3 3.1-1.4.7-.9.4-1.5-.1-1.8C29.3 35.5 17 25.2 15.6 24c-.6-.5-.7-1.5-.2-2.1v-.1c.6-.6 1.5-.7 2.2-.1.1.1 13.6 11.4 16.8 14.2 1.9 1.6 2.1 3.9.5 5.9-1.2 1.6-3.3 2.7-5.1 2.7zm-20-17.8c-.1 0-.3.1-.4.2-.1.1-.1.2-.1.3 0 .1.1.2.2.3.7.6 16.2 14.1 18.8 15.6.5.3 1 .4 1.5.4 1.5 0 3.3-.9 4.3-2.3 1.2-1.6 1.1-3.3-.4-4.5-3.2-2.8-16.7-14.1-16.8-14.2-.2-.2-.6-.2-.8 0-.1.1-.1.2-.1.3 0 .1.1.2.2.3 1.4 1.2 13.7 11.5 16.8 14.1 1.1.9 1.1 2.1.2 3.3-1 1.3-3.2 2.4-4.4 1.6-2.5-1.3-18.5-15.1-18.7-15.3-.1-.1-.2-.1-.3-.1z"/><path class="ost1" d="M41.4 37.3c-.6 0-1.3-.1-1.8-.5-3-1.6-20.4-16.2-21.2-16.8-.5-.4-.5-1.1-.2-1.6.4-.5 1.1-.5 1.6-.1 5 4.2 18.5 15.3 20.8 16.6 1 .5 3-.4 4.1-1.8.8-1.1.7-2.1-.2-2.8-3.6-3-18.6-15.2-18.8-15.3-.5-.4-.6-1.1-.2-1.6.4-.5 1.1-.5 1.6-.2.2.1 15.2 12.3 18.8 15.3 1.8 1.5 2.1 3.8.7 5.8-1.2 1.7-3.3 3-5.2 3z"/><path class="ost2" d="M41.4 37.8c-.7 0-1.4-.2-2.1-.5-3-1.7-20.5-16.3-21.2-16.9-.7-.6-.8-1.6-.2-2.3.6-.7 1.6-.8 2.3-.2 5 4.2 18.4 15.3 20.7 16.5.7.4 2.5-.4 3.4-1.6.8-1.1.3-1.7-.2-2.2-3.6-3-18.2-14.8-18.8-15.3-.7-.6-.8-1.6-.3-2.3.6-.7 1.6-.8 2.3-.2 1.6 1.3 15.3 12.4 18.8 15.3 2 1.7 2.3 4.3.7 6.5-1.1 2-3.4 3.2-5.4 3.2zM19.1 18.6c-.2 0-.4.1-.5.2-.2.2-.2.6.1.8 6.3 5.2 18.7 15.5 21 16.8.5.3 1 .4 1.6.4 1.7 0 3.6-1.1 4.8-2.7 1.3-1.8 1.1-3.8-.6-5.1-3.5-2.9-17.2-14-18.8-15.3-.3-.2-.7-.2-.9.1-.2.2-.2.6.1.8.6.5 15.2 12.3 18.8 15.3 1.2 1 1.3 2.2.3 3.5-1.1 1.5-3.4 2.7-4.7 2C38 34.1 24.5 23 19.5 18.8c-.1-.2-.2-.2-.4-.2z"/><path class="ost1" d="M54 30.3c-.6 0-1.2-.1-1.8-.4-3-1.6-20.6-15.9-21.4-16.5-.5-.4-.6-1.1-.2-1.6.4-.5 1.1-.5 1.6-.2 5.1 4.1 18.7 15 21 16.3 1 .5 3-.4 4-1.9.8-1.1.7-2.1-.3-2.8-3.7-3-18.9-14.9-19-15-.5-.4-.6-1.1-.2-1.6.4-.5 1.1-.6 1.6-.2.2.1 15.3 12 19 15 1.9 1.5 2.2 3.7.7 5.8-.9 1.8-3 3.1-5 3.1z"/><path class="ost2" d="M54 30.8c-.7 0-1.4-.2-2-.5-3-1.6-20.7-16-21.4-16.6-.7-.6-.8-1.6-.2-2.3.6-.7 1.6-.8 2.3-.2 5 4.1 18.6 15 20.9 16.2.7.4 2.5-.4 3.4-1.7.8-1.1.3-1.8-.2-2.1-3.3-2.7-16.3-12.9-18.9-14.9l-.1-.1c-.8-.6-.9-1.6-.4-2.3.6-.7 1.7-.8 2.4-.3.1.1 15.3 12 19 15 2.1 1.7 2.4 4.2.8 6.5-1.3 2-3.5 3.3-5.6 3.3zM31.6 11.9c-.2 0-.4.1-.5.2-.1.1-.1.3-.1.4 0 .2.1.3.2.4.7.6 18.4 14.9 21.3 16.5.5.2 1 .4 1.5.4 1.7 0 3.7-1.1 4.8-2.8 1.3-1.9 1-3.8-.6-5.1-3.7-3-18.9-14.9-19-15-.3-.2-.7-.2-.9.1-.1.1-.1.3-.1.4 0 .2.1.3.2.4l.1.1c2.6 2 15.6 12.2 18.9 14.9 1.2.9 1.3 2.2.4 3.5-1 1.5-3.3 2.8-4.7 2C50.3 26.8 32.2 12.2 32 12c-.1-.1-.3-.1-.4-.1z"/><path class="ost1" d="m.5 20.6 10.2 8.6s5.3-4.5 14.7-4.1c9.4.4 28.2 3.2 37.4-6.9L38.1.5.5 20.6z"/><path class="ost2" d="M10.7 29.7c-.1 0-.2 0-.3-.1L.2 21c-.2-.2-.2-.5-.1-.7 0-.1.1-.1.2-.1L37.9.1c.1-.1.4-.1.5 0l24.7 17.7c.2.2.3.5.1.7v.1c-8.2 8.9-23.6 7.9-33.7 7.3-1.5-.1-2.9-.2-4.1-.2-9.1-.4-14.3 3.9-14.4 4h-.3zm-9.3-9 9.3 7.8c1.3-1 6.5-4.3 14.7-4 1.2 0 2.6.1 4.1.2 9.8.6 24.5 1.6 32.5-6.5L38 1 1.4 20.7z"/><path class="ost0" d="m15.6 23.4-8-6.6"/><path class="ost2" d="M15.6 23.9c-.1 0-.2 0-.3-.1l-8-6.6c-.3-.1-.3-.4-.2-.6.2-.2.5-.3.7-.1l8 6.6c.2.2.3.5.1.7 0 .1-.2.2-.3.1z"/><path class="ost0" d="m18.4 25.8-1.7-1.4"/><path class="ost2" d="M18.4 26.3c-.1 0-.2 0-.3-.1l-1.7-1.4c-.2-.2-.3-.5-.1-.7.2-.2.5-.3.7-.1l1.7 1.4c.2.2.3.5.1.7-.1.1-.2.2-.4.2z"/><path class="ost0" d="M26.2 17.1 18.4 11"/><path class="ost2" d="M26.2 17.6c-.1 0-.2 0-.3-.1l-7.8-6.1c-.2-.2-.3-.5-.1-.7.2-.2.5-.3.7-.1l7.8 6.1c.2.2.3.5.1.7-.1.2-.3.2-.4.2z"/><path class="ost0" d="m27.9 18.5-.5-.4"/><path class="ost2" d="M27.9 19c-.1 0-.2 0-.3-.1l-.5-.4c-.2-.2-.3-.5-.1-.7s.5-.3.7-.1l.5.4c.2.2.3.5.1.7-.1.1-.2.2-.4.2z"/><path class="ost0" d="m37.2 25.7-8.1-6.3"/><path class="ost2" d="M37.2 26.2c-.1 0-.2 0-.3-.1l-8.1-6.3c-.2-.2-.3-.5-.1-.7.2-.2.5-.3.7-.1l8.1 6.3c.2.2.3.5.1.7-.1.2-.3.2-.4.2z"/><path class="ost0" d="M43.1 16.3 28.6 5.6"/><path class="ost2" d="M43.1 16.9c-.1 0-.2 0-.3-.1L28.3 6c-.2-.2-.3-.5-.1-.7.2-.2.5-.3.7-.1l14.5 10.7c.2.2.3.5.1.7-.1.2-.2.3-.4.3z"/><path class="ost0" d="m44.4 17.3-.2-.1"/><path class="ost2" d="M44.4 17.8c-.1 0-.2 0-.3-.1l-.2-.1c-.2-.2-.3-.5-.1-.7.2-.2.5-.3.7-.1l.2.1c.2.2.3.5.1.7-.1.1-.3.2-.4.2z"/><path class="ost0" d="m53.4 23.9-7.3-5.4"/><path class="ost2" d="M53.4 24.5c-.1 0-.2 0-.3-.1L45.8 19c-.2-.2-.3-.5-.1-.7.2-.2.5-.3.7-.1l7.3 5.4c.2.2.3.5.1.7-.1.1-.3.2-.4.2z"/><path class="ost0" d="M12.6 19.9 8 22.4"/><path class="ost2" d="M8.1 22.9c-.3 0-.5-.2-.5-.5 0-.2.1-.4.3-.5l4.6-2.5c.2-.1.6 0 .7.2s0 .6-.2.7l-4.6 2.5c-.2.1-.2.1-.3.1z"/><path class="ost0" d="m15 18.6-.9.5"/><path class="ost2" d="M14.1 19.6c-.3 0-.5-.2-.5-.5 0-.2.1-.4.3-.5l.9-.5c.2-.1.6 0 .7.2s0 .6-.2.7l-.9.5c-.2.1-.2.1-.3.1z"/><path class="ost0" d="m25.8 12.6-9.1 5"/><path class="ost2" d="M16.7 18.1c-.3 0-.5-.2-.5-.5 0-.2.1-.4.3-.5l9.1-5c.3-.1.6 0 .7.2.1.3 0 .6-.2.7L17 18c-.1.1-.2.1-.3.1z"/><path class="ost0" d="m27.4 11.7-.3.1"/><path class="ost2" d="M27.2 12.4c-.3 0-.5-.2-.5-.5 0-.2.1-.4.3-.5l.3-.1c.2-.1.6 0 .7.2.1.2 0 .6-.2.7l-.3.1c-.1.1-.2.1-.3.1z"/><path class="ost0" d="m42.1 3.6-13 7.2"/><path class="ost2" d="M29.1 11.3c-.3 0-.5-.2-.5-.5 0-.2.1-.4.3-.5l13-7.2c.2-.1.6 0 .7.2s0 .6-.2.7l-13 7.2c-.2.1-.3.1-.3.1z"/><path class="ost0" d="M33.2 20.4 24.9 25"/><path class="ost2" d="M24.9 25.5c-.3 0-.5-.2-.5-.5 0-.2.1-.4.3-.5L33 20c.3-.1.6 0 .7.2.1.3 0 .6-.2.7l-8.3 4.5c-.1.1-.2.1-.3.1z"/><path class="ost0" d="m47.6 12.6-12.8 6.9"/><path class="ost2" d="M34.8 20.1c-.3 0-.5-.2-.5-.5 0-.2.1-.4.3-.5l12.8-6.9c.3-.1.6 0 .7.2.1.3 0 .6-.2.7L35.1 20c-.1 0-.2.1-.3.1z"/><path class="ost0" d="m50.4 11.1-1 .5"/><path class="ost2" d="M49.4 12.1c-.3 0-.5-.2-.5-.5 0-.2.1-.4.3-.5l1-.5c.3-.1.6 0 .7.2.1.3 0 .6-.2.7l-1 .5c-.1.1-.2.1-.3.1z"/><path class="ost0" d="m56.5 19.3-11.2 6.1"/><path class="ost2" d="M45.3 26c-.3 0-.5-.2-.5-.5 0-.2.1-.4.3-.5l11.2-6.1c.3-.1.6 0 .7.2.1.3 0 .6-.2.7l-11.2 6.1c-.1.1-.2.1-.3.1z"/><path class="ost0" d="m58.5 18.2-.2.1"/><path class="ost2" d="M58.3 18.9c-.3 0-.5-.2-.5-.5 0-.2.1-.4.3-.5l.2-.1c.3-.1.6 0 .7.2.1.3 0 .6-.2.7l-.2.1c-.1 0-.2.1-.3.1z"/><path class="ost0" d="m61 16.9-1.1.6"/><path class="ost2" d="M59.9 18c-.3 0-.5-.2-.5-.5 0-.2.1-.4.3-.5l1.1-.6c.3-.1.6 0 .7.2.1.3 0 .6-.2.7l-1.1.6c-.1.1-.2.1-.3.1z"/><path class="ost0" d="m6.3 23.4-1.5.8"/><path class="ost2" d="M4.9 24.8c-.3 0-.5-.2-.5-.5 0-.2.1-.4.3-.5l1.4-.8c.2-.1.6-.1.7.2.1.2.1.6-.2.7l-1.5.8c-.1.1-.2.1-.2.1z"/></svg></svg>