<?xml version="1.0" encoding="utf-8"?><svg viewBox="0 0 512 512" xmlns="http://www.w3.org/2000/svg" xmlns:xlink="http://www.w3.org/1999/xlink"><style>:root>svg{display:none}:root>svg:target{display:block}</style><svg version="1.1" id="clock" x="0" y="0" viewBox="0 0 12 12" xml:space="preserve" xmlns="http://www.w3.org/2000/svg"><style>.ast0{fill:#fff}</style><path class="ast0" d="M6 0C2.7 0 0 2.7 0 6s2.7 6 6 6 6-2.7 6-6-2.7-6-6-6zm0 11.2C3.1 11.2.8 8.8.8 6S3.1.8 6 .8s5.2 2.4 5.2 5.2-2.3 5.2-5.2 5.2z"/><path class="ast0" d="M6.4 2.3h-.8v3.9L8 8.5l.5-.5-2.1-2.2V2.3z"/></svg><svg data-name="Capa 1" viewBox="0 0 17.06 12" id="mail" xmlns="http://www.w3.org/2000/svg"><path d="M15.56 0H1.5A1.5 1.5 0 0 0 0 1.5v9A1.5 1.5 0 0 0 1.5 12h14.06a1.5 1.5 0 0 0 1.5-1.5v-9a1.5 1.5 0 0 0-1.5-1.5zm-.21 1L9.59 6.73a1.5 1.5 0 0 1-2.12 0L1.71 1zM1 10.29V1.7L5.32 6zm.71.71L6 6.71l.73.73a2.51 2.51 0 0 0 3.54 0l.73-.73L15.35 11zm14.35-.71L11.74 6l4.32-4.3z" fill="#fff"/></svg><svg viewBox="0 0 512 512" id="phone-call" xmlns="http://www.w3.org/2000/svg"><path d="M480.6 361.6c-1.3-1-96.6-69.7-122.7-64.8-12.5 2.2-19.6 10.7-33.9 27.8-2.3 2.8-7.8 9.3-12.1 14-9-3-17.9-6.5-26.4-10.8-44.1-21.5-79.7-57.1-101.1-101.1-4.2-8.5-7.8-17.4-10.8-26.4 4.7-4.3 11.3-9.9 14.1-12.2 17-14.2 25.5-21.4 27.7-33.9 4.5-25.9-64.1-121.8-64.8-122.7-6.3-9-16.3-14.7-27.3-15.5C95.4 16 16 119 16 136.3c0 1 1.5 103.5 127.8 232C272.2 494.5 374.7 496 375.7 496 393 496 496 416.6 496 388.8c-.8-10.9-6.5-20.9-15.4-27.2z"/></svg><svg viewBox="0 0 512 512" id="phone-call_(2)" xmlns="http://www.w3.org/2000/svg"><path d="M480.6 361.6c-1.3-1-96.6-69.7-122.7-64.8-12.5 2.2-19.6 10.7-33.9 27.8-2.3 2.8-7.8 9.3-12.1 14-9-3-17.9-6.5-26.4-10.8-44.1-21.5-79.7-57.1-101.1-101.1-4.2-8.5-7.8-17.4-10.8-26.4 4.7-4.3 11.3-9.9 14.1-12.2 17-14.2 25.5-21.4 27.7-33.9 4.5-25.9-64.1-121.8-64.8-122.7-6.3-9-16.3-14.7-27.3-15.5C95.4 16 16 119 16 136.3c0 1 1.5 103.5 127.8 232C272.2 494.5 374.7 496 375.7 496 393 496 496 416.6 496 388.8c-.8-10.9-6.5-20.9-15.4-27.2z"/></svg><svg version="1.1" id="placeholder" x="0" y="0" viewBox="0 0 10 14.2" xml:space="preserve" xmlns="http://www.w3.org/2000/svg"><style>.est0{fill:#fff}</style><path class="est0" d="M5 0C2.2 0 0 2.2 0 5c0 .9.3 1.8.7 2.6l4 6.4c.1.1.2.2.4.2.1 0 .3-.1.4-.2l3.9-6.5c.4-.7.6-1.6.6-2.5 0-2.8-2.2-5-5-5zm3.6 7.1L5.1 13 1.5 7.2C1 6.5.8 5.8.8 5 .8 2.7 2.7.8 5 .8S9.2 2.7 9.2 5c0 .8-.2 1.5-.6 2.1z"/><path class="est0" d="M5 2.5C3.6 2.5 2.5 3.6 2.5 5S3.6 7.5 5 7.5 7.5 6.4 7.5 5 6.4 2.5 5 2.5zm0 4.2c-.9 0-1.7-.8-1.7-1.7 0-.9.8-1.7 1.7-1.7s1.7.8 1.7 1.7c0 .9-.8 1.7-1.7 1.7z"/></svg><svg viewBox="0 0 34 34.1" id="telephone" xmlns="http://www.w3.org/2000/svg"><path d="M6.9 22.7c3.4 4 7.4 7.2 12 9.4 1.8.8 4.1 1.8 6.7 2h.5c1.8 0 3.2-.6 4.3-1.9.4-.5.9-.9 1.4-1.4l1-1c1.5-1.6 1.5-3.6 0-5.1l-4.3-4.3c-.7-.7-1.6-1.1-2.5-1.1-.9 0-1.8.4-2.5 1.1L21.1 23c-.2-.1-.5-.3-.7-.4-.3-.1-.5-.3-.8-.4-2.3-1.5-4.4-3.4-6.4-5.8-1-1.3-1.7-2.4-2.2-3.5.7-.6 1.3-1.2 1.9-1.8l.7-.7c.8-.8 1.2-1.6 1.2-2.5s-.4-1.8-1.2-2.5l-2.1-2.1-.8-.8-1.4-1.4C8.6.4 7.7 0 6.8 0c-.9 0-1.7.4-2.5 1.1L1.6 3.7C.6 4.7.1 5.8 0 7.2c-.1 1.7.2 3.5 1 5.7 1.3 3.3 3.1 6.5 5.9 9.8zM1.8 7.4c0-1 .4-1.8 1.1-2.4l2.6-2.6c.4-.4.9-.6 1.3-.6s.9.2 1.3.6c.5.4.9.8 1.4 1.3.2.3.5.5.7.8l2.1 2.1c.5.4.7.9.7 1.3s-.2.9-.7 1.3l-.7.7c-.7.7-1.3 1.3-2 1.9-.6.6-.5 1.1-.4 1.6v.1c.5 1.3 1.3 2.6 2.5 4 2.1 2.6 4.4 4.6 6.8 6.2.3.2.6.4.9.5.3.1.5.3.8.4h.1c.2.1.5.2.7.2.6 0 .9-.4 1.1-.5l2.6-2.6c.4-.4.9-.6 1.3-.6.5 0 1 .3 1.3.6l4.3 4.3c.8.8.8 1.8 0 2.7l-.9.9-1.5 1.5c-.8.9-1.8 1.3-3 1.3h-.4c-2.3-.1-4.5-1.1-6.1-1.8-4.4-2.1-8.3-5.1-11.5-9-2.6-3.2-4.4-6.1-5.6-9.3-.7-1.9-1-3.5-.8-4.9z" fill="#fff"/></svg></svg>