<svg xmlns="http://www.w3.org/2000/svg" viewBox="0 0 29.9 30"><path d="M3.9 17.7h-3c-.5 0-.9.4-.9.9v10.5c0 .5.4.9.9.9h3c.5 0 .9-.4.9-.9V18.6c0-.5-.4-.9-.9-.9zM29 20.1c-.6-.4-1.3-.5-2-.2l-5.9 2.5c-.4 1.8-2 3.2-3.9 3.2h-5.7c-.5 0-.9-.4-.9-.9s.4-.9.9-.9h5.7c1.2 0 2.2-1 2.2-2.2 0-.6-.2-1.2-.7-1.6-.4-.4-1-.6-1.6-.6h-3.7c-.4 0-.8-.1-1.2-.3-1.1-.6-2.4-.9-3.7-.8-.7.1-1.4.2-2.1.5v9.9c2 .8 4.1 1.2 6.2 1.2h.3c2.5 0 5-.5 7.2-1.6.3-.1.6-.3.9-.5l7.7-4.1c.7-.4 1.1-1.1 1.1-1.9.2-.6-.2-1.3-.8-1.7zM15 0c-4.7 0-8.5 3.8-8.5 8.5S10.3 17 15 17s8.5-3.8 8.5-8.5S19.7 0 15 0zm3.5 3.7c.3-.3.9-.3 1.2 0 .3.3.3.9 0 1.2s-.9.3-1.2 0-.3-.8 0-1.2zM9.1 9.4c-.5 0-.9-.4-.9-.9s.4-.9.9-.9.9.4.9.9-.4.9-.9.9zm2.4 3.9c-.3.3-.9.3-1.2 0s-.3-.9 0-1.2c.3-.3.9-.3 1.2 0 .3.3.3.8 0 1.2zm0-8.3c-.3.3-.9.3-1.2 0s-.3-.9 0-1.2c.3-.3.9-.3 1.2 0 .3.3.3.8 0 1.2zM15 15.2c-.5 0-.9-.4-.9-.9s.4-.9.9-.9.9.4.9.9-.4.9-.9.9zm.9-6.7c0 .5-.4.9-.9.9h-2.3c-.5 0-.9-.4-.9-.9s.4-.9.9-.9h1.5V6.1c0-.5.4-.9.9-.9s.9.4.9.9l-.1 2.4zm-.9-5c-.5 0-.9-.4-.9-.9s.4-.9.9-.9.9.4.9.9-.4.9-.9.9zm4.8 9.8c-.3.3-.9.3-1.2 0-.3-.3-.3-.9 0-1.2.3-.3.9-.3 1.2 0 .3.3.3.8 0 1.2zm1.1-3.9c-.5 0-.9-.4-.9-.9s.4-.9.9-.9.9.4.9.9-.5.9-.9.9z" fill="#003455"/></svg>