<svg version="1.1" id="Capa_1" xmlns="http://www.w3.org/2000/svg" x="0" y="0" viewBox="0 0 30.1 31.2" xml:space="preserve"><style>.st0{fill:#003455}</style><path class="st0" d="M28.7 16c-.1-.3-.1-.6 0-.8l1.2-2.4c.6-1.3.1-2.9-1.2-3.6L26.4 8c-.3-.1-.4-.4-.5-.7l-.5-2.6c-.3-1.5-1.6-2.4-3.1-2.2l-2.6.4c-.3 0-.6-.1-.8-.3L17 .8c-1.1-1-2.7-1-3.8 0l-1.9 1.8c-.2.2-.5.3-.8.3l-2.6-.5c-1.5-.2-2.8.8-3.1 2.2l-.5 2.6c0 .3-.2.5-.5.7L1.5 9.2C.2 9.9-.3 11.5.3 12.8l1.2 2.4c.1.3.1.6 0 .8L.3 18.4c-.6 1.3-.1 2.9 1.2 3.6l2.3 1.2c.3.1.4.4.5.7l.5 2.6c.2 1.3 1.4 2.3 2.7 2.3h.4l2.6-.4c.3 0 .6.1.8.3l1.9 1.8c.5.5 1.2.8 1.9.8s1.4-.3 1.9-.8l1.9-1.8c.2-.2.5-.3.8-.3l2.6.4c1.5.2 2.8-.8 3.1-2.2l.5-2.6c0-.3.2-.5.5-.7l2.3-1.2c1.3-.7 1.8-2.3 1.2-3.6L28.7 16zM11.6 7.5c1.8 0 3.3 1.5 3.3 3.3S13.4 14 11.6 14s-3.3-1.5-3.3-3.3 1.4-3.2 3.3-3.2zM9.8 22.2c-.2.2-.4.3-.6.3s-.5-.1-.6-.3c-.4-.4-.4-.9 0-1.3L20.5 9c.4-.4.9-.4 1.3 0s.4.9 0 1.3l-12 11.9zm9 1.5c-1.8 0-3.3-1.5-3.3-3.3s1.5-3.3 3.3-3.3 3.3 1.5 3.3 3.3-1.5 3.3-3.3 3.3z"/><path class="st0" d="M18.8 18.9c-.8 0-1.5.7-1.5 1.5s.7 1.5 1.5 1.5 1.5-.7 1.5-1.5-.7-1.5-1.5-1.5zm-7.2-9.6c-.8 0-1.5.7-1.5 1.5s.7 1.5 1.5 1.5 1.5-.7 1.5-1.5c0-.9-.7-1.5-1.5-1.5z"/></svg>