<svg image-rendering="optimizeQuality" shape-rendering="geometricPrecision" text-rendering="geometricPrecision" xmlns="http://www.w3.org/2000/svg" viewBox="0 0 50 56.4"><path d="M38.3 56.4H5.9c-3.3 0-5.9-2.8-5.9-6.1V11.7c0-3.3 2.6-6.1 5.9-6.1h.4c.4 0 .8.3.8.8 0 .3-.2.7-.7.8L11 49.6h32c.1-.2.3-.4.7-.4.4 0 .8.3.8.8v.4c-.1 3.2-2.9 6-6.2 6z" fill="#23a79c"/><path d="M4.5 5.8c.4-.1 1-.2 1.4-.2h.4c.4 0 .8.3.8.8 0 .3-.2.7-.7.8L11 49.6h32c.1-.2.3-.4.7-.4.4 0 .8.3.8.8v.4c0 .4-.1 1-.2 1.4H11.7c-3.9 0-7.2-3.1-7.2-7v-39z" fill="#e3ab32"/><path d="M43.9 50.7H11.7c-3.3 0-6.1-2.6-6.1-5.9V6.1C5.6 2.8 8.4 0 11.7 0h27.9c.4 0 .8.3.8.8s-.4.8-.9.8v8.8h8.9c.1-.3.3-.7.8-.7.4 0 .8.3.8.8v34.3c0 1.7-.7 3.1-1.8 4.2s-2.6 1.7-4.3 1.7z" fill="#efedef"/><path d="M49.2 11.2h-9.7c-.4 0-.8-.3-.8-.8V.8c0-.3.2-.6.4-.7.3-.2.7-.1.9.1l9.7 9.7c.2.2.2.6.1.9 0 .2-.2.4-.6.4zM27.9 8.7H12c-.4 0-.8-.3-.8-.8s.3-.8.8-.8h15.9c.4 0 .8.3.8.8s-.4.8-.8.8zm15.7 5.8H12c-.4 0-.8-.3-.8-.8 0-.4.3-.8.8-.8h31.6c.4 0 .8.3.8.8s-.3.8-.8.8zm0 5.8H12c-.4 0-.8-.3-.8-.8s.3-.8.8-.8h31.6c.4 0 .8.3.8.8s-.3.8-.8.8zm0 5.8H12c-.4 0-.8-.3-.8-.8s.3-.8.8-.8h31.6c.4 0 .8.3.8.8s-.3.8-.8.8zm0 5.9H12c-.4 0-.8-.3-.8-.8s.3-.8.8-.8h31.6c.4 0 .8.3.8.8s-.3.8-.8.8zm0 5.7H12c-.4 0-.8-.3-.8-.8 0-.4.3-.8.8-.8h31.6c.4 0 .8.3.8.8 0 .4-.3.8-.8.8zm0 5.8H12c-.4 0-.8-.3-.8-.8 0-.4.3-.8.8-.8h31.6c.4 0 .8.3.8.8s-.3.8-.8.8z" fill="#b5adb6"/></svg>