<svg version="1.1" id="Layer_1" xmlns="http://www.w3.org/2000/svg" x="0" y="0" viewBox="0 0 50 49.4" xml:space="preserve"><style>.st4{fill:#23a79c}</style><path d="M20.7 28.3H28c1.8 0 3.3 1.5 3.3 3.3 0 1.8-1.5 3.3-3.3 3.3h5.6c.7 0 1.4-.3 1.9-.8l7.8-7.8c.5-.5 1.2-.8 1.8-.8V14.7L31 4.6 17 14.7v14.8c1.1-.8 2.4-1.2 3.7-1.2z" fill="#e6e7e8"/><path d="M43.9 13.9v10.5c-.7 0-1.3.3-1.8.8L34.3 33c-.5.5-1.2.8-1.9.8h-2c-.6.7-1.5 1.1-2.5 1.1h5.6c.7 0 1.4-.3 1.9-.8l7.8-7.8c.5-.5 1.2-.8 1.8-.8V14.7l-1.1-.8zM29.7 28.8c-.6-1-1.6-1.6-2.8-1.6h-7.2c-.9 0-1.8.2-2.7.6v1.7c1.1-.8 2.4-1.2 3.8-1.2H28c.6 0 1.2.2 1.7.5z" fill="#d1d3d4"/><path d="M28 28.3c1.8 0 3.3 1.5 3.3 3.3 0 1.8-1.5 3.3-3.3 3.3h5.6c.7 0 1.4-.3 1.9-.8l1.4-1.4V15.9c0-.2-.2-.4-.4-.4H25.6c-.2 0-.4.2-.4.4v12.4H28z" fill="#58595b"/><path d="M29.7 28.8c-.6-1-1.6-1.6-2.8-1.6h-1.7v1.1H28c.6 0 1.2.2 1.7.5zm4.6 4.3c-.5.5-1.2.8-1.9.8h-2c-.6.7-1.5 1.1-2.5 1.1h5.6c.7 0 1.4-.3 1.9-.8l1.4-1.4v-2.2c-1 .9-1.9 1.8-2.5 2.5z" fill="#414042"/><path class="st4" d="M34.5 22.8h-7c-.2 0-.4-.2-.4-.4V18c0-.2.2-.4.4-.4h7c.2 0 .4.2.4.4v4.4c.1.2-.1.4-.4.4z"/><circle cx="27.8" cy="25.5" r=".7" fill="#ef7816"/><path class="st4" d="M47.9 16.3c-.4 0-.8-.1-1.2-.4L31 4.6 15.3 15.9c-.9.7-2.2.4-2.9-.5-.7-.9-.4-2.2.5-2.9L29.8.4c.7-.5 1.7-.5 2.4 0l16.9 12.1c.9.7 1.1 1.9.5 2.9-.4.6-1 .9-1.7.9z"/><path d="M49.6 14.3c-.4.6-1 .9-1.7.9-.4 0-.8-.1-1.2-.4L31 3.5 15.3 14.8c-.9.7-2.2.4-2.9-.5l-.3-.6c-.2.6-.1 1.2.3 1.8.7.9 1.9 1.1 2.9.5L31 4.6l15.7 11.3c.4.3.8.4 1.2.4.6 0 1.3-.3 1.7-.9.4-.5.5-1.2.3-1.8 0 .3-.1.5-.3.7z" fill="#2266d3"/><path d="M47.3 26.4c-1.2-1.2-3-1.2-4.1-.1l-7.8 7.8c-.5.5-1.2.8-1.9.8H28c1.8 0 3.3-1.5 3.3-3.3 0-1.8-1.5-3.3-3.3-3.3h-7.2c-1.8 0-3.5.7-4.8 2L11.5 35H9.8v11h18.5c2.1 0 4.1-.8 5.6-2.3l13.4-13.4c1.1-1.1 1.1-2.8 0-3.9z" fill="#fcc4ae"/><path d="M47.5 26.6c0 .8-.2 1.5-.8 2.1L33.3 42.1c-1.5 1.5-3.5 2.3-5.6 2.3H9.8V46h18.5c2.1 0 4.1-.8 5.6-2.3l13.4-13.4c1.1-1 1.1-2.6.2-3.7zM28 34.9h-5.5c-.3 0-.5-.2-.5-.5s.2-.5.5-.5h4.8c1.8 0 3.3-1.5 3.3-3.3 0-.5-.1-.9-.3-1.3.6.6.9 1.4.9 2.3.1 1.9-1.4 3.3-3.2 3.3z" fill="#f2ad97"/><path d="M26.8 33.7h.7c1 0 1.8-.8 1.8-1.8v-.6c0-1-.8-1.8-1.8-1.8h-.7c-.2 0-.4.2-.4.4v3.3c0 .3.2.5.4.5z" fill="#ffd2c0"/><path d="M8.6 49.4H1.1c-.6 0-1.1-.5-1.1-1.1V32.7c0-.6.5-1.1 1.1-1.1h7.5c.6 0 1.1.5 1.1 1.1v15.5c.1.7-.4 1.2-1.1 1.2z" fill="#478cf7"/><path d="M1.3 44c-.2 0-.4-.2-.4-.4v-8.7c0-.2.2-.4.4-.4s.4.2.4.4v8.7c.1.2-.1.4-.4.4zm0-10.5c-.2 0-.4-.2-.4-.4V33c0-.2.2-.4.4-.4s.4.2.4.4v.1c.1.2-.1.4-.4.4z" fill="#5e9cf7"/><path class="st4" d="M9.8 32.7c0-.6-.5-1.1-1.1-1.1H5.3v12.2c0 .6-.5 1.1-1.1 1.1H0v3.4c0 .6.5 1.1 1.1 1.1h7.5c.6 0 1.1-.5 1.1-1.1l.1-15.6z"/><path class="st4" d="M9.8 32.7c0-.6-.5-1.1-1.1-1.1H7.5V46c0 .6-.5 1.1-1.1 1.1H0v1.1c0 .6.5 1.1 1.1 1.1h7.5c.6 0 1.1-.5 1.1-1.1l.1-15.5z"/></svg>