<svg version="1.1" id="Слой_1" xmlns="http://www.w3.org/2000/svg" x="0" y="0" viewBox="0 0 60 60" xml:space="preserve"><style>.st3{fill:#23a79c}.st7{fill:#7f8c8d}</style><g id="Page-1"><g id="_x30_25---Boiler" transform="translate(0 -1)"><path id="Shape" d="M53.8 26.6V60c0 .6-.5 1-1 1H7.2c-.6 0-1-.5-1-1V26.6L30 6.9l23.8 19.7z" fill="#f5efca"/><path id="Shape_1_" d="M46.6 15.5V8.2c0-.6.5-1 1-1h5.2c.6 0 1 .5 1 1v13.2l-7.2-5.9z" fill="#048777"/><path id="Shape_2_" d="M53.8 26.6v4.2l-1.3-1.1L30 11.2 7.5 29.8l-1.3 1.1v-4.2L30 6.9l23.8 19.7z" fill="#e4c05c"/><path id="Shape_3_" class="st3" d="M59.7 26.8l-2.6 2.9c-.4.4-1 .5-1.4.1l-1.9-1.6L30 8.5 6.2 28.2l-1.9 1.6c-.4.4-1.1.3-1.4-.1L.3 26.8c-.2-.2-.3-.5-.3-.8 0-.3.2-.5.4-.7l28.9-24c.4-.3 1-.3 1.3 0l28.9 24c.2.2.4.4.4.7.1.3 0 .6-.2.8z"/><path id="Shape_4_" d="M41.4 43.4v6.2c0 1.1-.9 2.1-2.1 2.1H20.7c-1.1 0-2.1-.9-2.1-2.1v-6.2h22.8z" fill="#84b5cb"/><path id="Shape_5_" d="M41.4 24.8v18.6H18.6V24.8c0-2.3 5.1-4.1 11.4-4.1s11.4 1.8 11.4 4.1z" fill="#9fc9d3"/><path id="Rectangle-path" class="st3" d="M25.9 40.3h8.3c.6 0 1 .5 1 1v4.1c0 .6-.5 1-1 1h-8.3c-.6 0-1-.5-1-1v-4.1c-.1-.5.4-1 1-1z"/><path id="Shape_6_" d="M34.1 47.6h-8.3c-1.1 0-2.1-.9-2.1-2.1v-4.1c0-1.1.9-2.1 2.1-2.1h8.3c1.1 0 2.1.9 2.1 2.1v4.1c0 1.1-.9 2.1-2.1 2.1zm-8.2-6.3v4.1h8.3v-4.1h-8.3z" fill="#3b97d3"/><path id="Shape_7_" class="st7" d="M21.7 51.7h4.1v3.1c0 1.1-.9 2.1-2.1 2.1s-2.1-.9-2.1-2.1v-3.1z"/><path id="Shape_8_" class="st7" d="M34.1 51.7h4.1v3.1c0 1.1-.9 2.1-2.1 2.1-1.1 0-2.1-.9-2.1-2.1v-3.1z"/></g></g></svg>