<svg xmlns="http://www.w3.org/2000/svg" viewBox="0 0 41 50"><path d="M2.9 45.6H0V4.4C0 2 2 0 4.4 0H41v41.2c0 1.6-1.3 2.9-2.9 2.9H4.4c-.8 0-1.5.7-1.5 1.5z" fill="#23a79c"/><path d="M20.5 44.1h17.6c1.6 0 2.9-1.3 2.9-2.9V0H20.5v44.1z" fill="#168e80"/><path d="M20.5 36.1c-7.7 0-13.9-6.2-13.9-13.9S12.8 8.3 20.5 8.3s13.9 6.2 13.9 13.9-6.2 13.9-13.9 13.9z" fill="#6cf"/><path d="M34.4 22.2c0-7.7-6.2-13.9-13.9-13.9v27.8c7.7 0 13.9-6.3 13.9-13.9z" fill="#59abff"/><path d="M41 50H4.4C2 50 0 48 0 45.6c0-2.4 2-4.4 4.4-4.4H41v2.9c-.8 0-1.5.7-1.5 1.5s.7 1.5 1.5 1.5V50zM22 25.8V20h-5.9v2.9H19v2.9h-2.9v2.9h8.8v-2.9H22zm-3-11.7h3V17h-3v-2.9z" fill="#f3f5f9"/><path d="M20.5 50H41v-2.9c-.8 0-1.5-.7-1.5-1.5s.7-1.5 1.5-1.5v-2.9H20.5V50zm0-35.9H22V17h-1.5v-2.9zM22 20h-1.5v8.8h4.4v-2.9H22V20z" fill="#e1e6f0"/></svg>