<svg version="1.1" id="Capa_1" xmlns="http://www.w3.org/2000/svg" x="0" y="0" viewBox="0 0 40 48.8" xml:space="preserve"><style>.st0{fill:#23a79c}.st1{fill:#1bc1ad}.st2{fill:#ff7452}.st3{fill:#fb9d46}.st4{fill:#fdba4c}.st5{fill:#ffd652}.st6{fill:#fbe287}</style><path class="st0" d="M20 14.3L19 25h2.4V13.3z"/><path class="st1" d="M18.6 13.3V25H20V14.3z"/><path class="st0" d="M20 14.3c7.9 0 14.3-6.4 14.3-14.3C26.4 0 20 6.4 20 14.3z"/><path class="st1" d="M5.7 0c0 7.9 6.4 14.3 14.3 14.3C20 6.4 13.6 0 5.7 0z"/><path class="st2" d="M34.3 42.3l-1 3.2 1 3.3h2.8v-6.5z"/><path class="st3" d="M31.4 42.3l-.9 3.2.9 3.3h2.9v-6.5z"/><path class="st2" d="M28.6 40.4l-1 5.1 1 3.3h2.8v-8.4z"/><path class="st3" d="M25.7 40.4l-.9 5.1.9 3.3h2.9v-8.4z"/><path class="st2" d="M22.9 40.4l-1 5.1 1 3.3h2.8v-8.4z"/><path class="st3" d="M20 40.4l-1 5.1 1 3.3h2.9v-8.4z"/><path class="st4" d="M17.1 40.4l-.9 5.1.9 3.3H20v-8.4z"/><path class="st3" d="M14.3 40.4l-1 5.1 1 3.3h2.8v-8.4z"/><path class="st4" d="M11.4 40.4l-.9 5.1.9 3.3h2.9v-8.4z"/><path class="st3" d="M8.6 40.4l-1 5.1 1 3.3h2.8v-8.4z"/><path class="st4" d="M5.7 40.4h2.9v8.3H5.7z"/><path class="st3" d="M37.1 29.5l-.9 3.2.9 3.2H40v-6.4z"/><path class="st2" d="M34.3 27.6l-1 5.1 1 3.2h2.8v-6.4z"/><path class="st3" d="M31.4 27.6l-.9 5.1.9 3.2h2.9v-8.3z"/><path class="st2" d="M28.6 27.6l-1 5.1 1 5.1h2.8V27.6z"/><path class="st3" d="M25.7 27.6l-.9 5.1.9 5.1h2.9V27.6z"/><path class="st2" d="M22.9 27.6l-1 5.1 1 5.1h2.8V27.6z"/><path class="st3" d="M20 27.6l-1 5.1 1 5.1h2.9V27.6z"/><path class="st4" d="M17.1 27.6l-.9 5.1.9 5.1H20V27.6z"/><path class="st5" d="M14.3 27.6l-1 5.1 1 5.1h2.8V27.6z"/><path class="st4" d="M11.4 27.6l-.9 5.1.9 5.1h2.9V27.6z"/><path class="st5" d="M8.6 27.6h2.9v10.2H8.6z"/><path class="st3" d="M34.3 23l-1 3.3 1 3.2h2.8V23z"/><path class="st4" d="M31.4 23l-.9 3.3.9 3.2h2.9V23z"/><path class="st3" d="M28.6 23l-1 3.3 1 3.2h2.8V23z"/><path class="st4" d="M25.7 23l-.9 3.3.9 3.2h2.9V23z"/><path class="st3" d="M22.9 23l-1 3.3 1 3.2h2.8V23z"/><path class="st4" d="M20 23l-1 3.3 1 3.2h2.9V23z"/><path class="st5" d="M17.1 23l-.9 3.3.9 3.2H20V23z"/><path class="st6" d="M14.3 23l-1 3.3 1 3.2h2.8V23z"/><path class="st5" d="M11.4 23l-.9 3.3.9 3.2h2.9V23z"/><path class="st6" d="M8.6 23l-1 3.3 1 3.2h2.8V23z"/><path class="st5" d="M5.7 23h2.9v6.4H5.7z"/><path class="st3" d="M28.6 35.9l-1 3.2 1 3.2h2.8v-6.4z"/><path class="st4" d="M25.7 35.9l-.9 3.2.9 3.2h2.9v-6.4z"/><path class="st3" d="M22.9 35.9l-1 3.2 1 3.2h2.8v-6.4z"/><path class="st4" d="M20 35.9l-1 3.2 1 3.2h2.9v-6.4z"/><path class="st5" d="M17.1 35.9l-.9 3.2.9 3.2H20v-6.4z"/><path class="st6" d="M14.3 35.9l-1 3.2 1 3.2h2.8v-6.4z"/><path class="st5" d="M11.4 35.9l-.9 3.2.9 3.2h2.9v-6.4z"/><path class="st6" d="M8.6 35.9l-1 3.2 1 3.2h2.8v-6.4z"/><path class="st5" d="M5.7 35.9l-.9 3.2.9 3.2h2.9v-6.4z"/><path class="st6" d="M2.9 35.9l-1 3.2 1 3.2h2.8v-6.4z"/><path class="st5" d="M0 35.9h2.9v6.4H0z"/></svg>