<svg version="1.1" id="Capa_1" xmlns="http://www.w3.org/2000/svg" x="0" y="0" viewBox="0 0 10 14.2" xml:space="preserve"><style>.st0{fill:#fff}</style><path class="st0" d="M5 0C2.2 0 0 2.2 0 5c0 .9.3 1.8.7 2.6l4 6.4c.1.1.2.2.4.2.1 0 .3-.1.4-.2l3.9-6.5c.4-.7.6-1.6.6-2.5 0-2.8-2.2-5-5-5zm3.6 7.1L5.1 13 1.5 7.2C1 6.5.8 5.8.8 5 .8 2.7 2.7.8 5 .8S9.2 2.7 9.2 5c0 .8-.2 1.5-.6 2.1z"/><path class="st0" d="M5 2.5C3.6 2.5 2.5 3.6 2.5 5S3.6 7.5 5 7.5 7.5 6.4 7.5 5 6.4 2.5 5 2.5zm0 4.2c-.9 0-1.7-.8-1.7-1.7 0-.9.8-1.7 1.7-1.7s1.7.8 1.7 1.7c0 .9-.8 1.7-1.7 1.7z"/></svg>