<svg version="1.1" id="Слой_1" xmlns="http://www.w3.org/2000/svg" x="0" y="0" viewBox="0 0 50 50" xml:space="preserve"><style>.st3{fill:#23a79c}.st6{fill:#acabb1}</style><path d="M38.6 7.9c.6.6 1 1.5 1 2.4v4.3c0 1.9 1.5 3.4 3.4 3.4s3.4-1.5 3.4-3.4V.9c0-.5-.4-.9-.9-.9H7.8c-.5 0-.9.4-.9.9v6h29.3c.9 0 1.8.4 2.4 1z" fill="#d1d3d4"/><path d="M39.7 14.7v-4.3c0-1.9-1.5-3.4-3.4-3.4s-3.4 1.5-3.4 3.4v7.8h10.3c-2-.1-3.5-1.6-3.5-3.5z" fill="#bcbec0"/><path d="M6.9 6.9H3.4C1.5 6.9 0 8.4 0 10.3v38.8c0 .5.4.9.9.9h31c.5 0 .9-.4.9-.9V10.3c0-1.9 1.5-3.4 3.4-3.4H6.9z" fill="#e6e7e8"/><path class="st3" d="M42.2 32.8h2.6c.5 0 .9-.4.9-.9v-5.2c0-.5-.4-.9-.9-.9h-2.6v7z"/><path d="M32.8 25.9h-6v6.9h15.5v-6.9h-9.5z" fill="#ff7956"/><path d="M45.7 27.6h3.4V31h-3.4v-3.4z" fill="#ff6243"/><path class="st3" d="M49.1 36.2H4.3c-.5 0-.9.4-.9.9v8.6c0 .5.4.9.9.9h44.8c.5 0 .9-.4.9-.9v-8.6c0-.5-.4-.9-.9-.9z"/><path class="st6" d="M9.5 11.2h19v1.7h-19v-1.7zm-5.2 5.2h24.1v1.7H4.3v-1.7z"/><path d="M4.3 21.6h15.5v1.7H4.3v-1.7zm0-10.4h3.4v1.7H4.3v-1.7zm0 15.5H6v1.7H4.3v-1.7z" fill="#898890"/><path class="st6" d="M7.8 26.7h10.3v1.7H7.8v-1.7z"/><path d="M23.3 30.2h-2.6c-.5 0-.9-.4-.9-.9s.4-.9.9-.9h2.6c.5 0 .9.4.9.9s-.4.9-.9.9z" fill="#787680"/><path d="M35.3 28.4h6.9v1.7h-6.9v-1.7z" fill="#ff5023"/><path d="M29.3 40.5H31v6h-1.7v-6zm6.9 1.7h1.7v4.3h-1.7v-4.3zm6.9 0h1.7v4.3h-1.7v-4.3zm-20.7 0h1.7v4.3h-1.7v-4.3zm-6.9 0h1.7v4.3h-1.7v-4.3zm-6.9 0h1.7v4.3H8.6v-4.3z" fill="#ff9811"/><path class="st3" d="M23.3 28.4v1.7l3.4 2.6v-6.9l-3.4 2.6z"/></svg>