<svg version="1.1" id="Слой_1" xmlns="http://www.w3.org/2000/svg" x="0" y="0" viewBox="0 0 60 60" xml:space="preserve"><style>.st0{fill:#bdc3c7}</style><path class="st0" d="M6.2 18.6H2.1c-1.1 0-2.1.9-2.1 2.1v32.1c0 1.1.9 2.1 2.1 2.1H58c1.1 0 2.1-.9 2.1-2.1V20.7c0-1.1-.9-2.1-2.1-2.1H6.2z"/><path d="M7.8 18.6H4c-1.1 0-2 1-1.9 2.1v32.1c0 1.1.8 2 1.9 2.1h52c1.1 0 2-1 1.9-2.1V20.7c0-1.1-.8-2-1.9-2.1H7.8z" fill="#e6e7e8"/><path class="st0" d="M5.2 51.7c-.6 0-1-.5-1-1V24.8c0-.6.5-1 1-1s1 .5 1 1v25.9c0 .6-.5 1-1 1zm4.1 0c-.6 0-1-.5-1-1V24.8c0-.6.5-1 1-1s1 .5 1 1v25.9c0 .6-.4 1-1 1zm4.1 0c-.6 0-1-.5-1-1V24.8c0-.6.5-1 1-1s1 .5 1 1v25.9c.1.6-.4 1-1 1zm4.2 0c-.6 0-1-.5-1-1V24.8c0-.6.5-1 1-1s1 .5 1 1v25.9c0 .6-.4 1-1 1zm4.1 0c-.6 0-1-.5-1-1V24.8c0-.6.5-1 1-1s1 .5 1 1v25.9c.1.6-.4 1-1 1zm4.2 0c-.6 0-1-.5-1-1V24.8c0-.6.5-1 1-1 .6 0 1 .5 1 1v25.9c0 .6-.5 1-1 1zm4.1 0c-.6 0-1-.5-1-1V24.8c0-.6.5-1 1-1s1 .5 1 1v25.9c0 .6-.4 1-1 1zm4.1 0c-.6 0-1-.5-1-1V24.8c0-.6.5-1 1-1 .6 0 1 .5 1 1v25.9c.1.6-.4 1-1 1zm4.2 0c-.6 0-1-.5-1-1V24.8c0-.6.5-1 1-1s1 .5 1 1v25.9c0 .6-.5 1-1 1zm4.1 0c-.6 0-1-.5-1-1V24.8c0-.6.5-1 1-1s1 .5 1 1v25.9c0 .6-.4 1-1 1zm4.2 0c-.6 0-1-.5-1-1V24.8c0-.6.5-1 1-1s1 .5 1 1v25.9c0 .6-.5 1-1 1zm4.1 0c-.6 0-1-.5-1-1V24.8c0-.6.5-1 1-1s1 .5 1 1v25.9c0 .6-.4 1-1 1zm4.1 0c-.6 0-1-.5-1-1V24.8c0-.6.5-1 1-1s1 .5 1 1v25.9c.1.6-.4 1-1 1z"/><path d="M4.1 54.8h4.1v3.1c0 1.1-.9 2.1-2.1 2.1S4 59.1 4 57.9v-3.1zm47.6 0h4.1v3.1c0 1.1-.9 2.1-2.1 2.1s-2.1-.9-2.1-2.1v-3.1z" fill="#95a5a5"/><path d="M6.1 8.3H4.2c-.4 0-.8-.3-1-.7-.2-.4-.1-.8.2-1.2L8.5.3c.2-.2.5-.3.8-.3s.6.1.8.4l5.1 6.1c.3.3.3.8.2 1.2-.2.4-.6.7-1 .7h-2v11.4c0 .6-.5 1-1 1H7.2c-.6 0-1-.5-1-1V8.3h-.1zm41.4 0h-1.9c-.4 0-.8-.3-1-.7-.2-.4-.1-.8.2-1.2L49.9.3c.2-.2.5-.3.8-.3s.6.1.8.4l5.1 6.1c.3.3.3.8.2 1.2-.2.4-.6.7-1 .7h-2v11.4c0 .6-.5 1-1 1h-4.1c-.6 0-1-.5-1-1V8.3h-.2zm-25.8 7.2c-.4 0-.8-.2-1-.6-.2-.4-.1-.8.2-1.1.5-.7.8-1.5.7-2.4 0-.9-.2-1.7-.7-2.4-.9-1.1-1.4-2.4-1.3-3.8-.1-1.4.4-2.8 1.3-3.8.3-.3.6-.4 1-.3s.6.4.7.7 0 .7-.3 1c-.5.7-.8 1.5-.7 2.4 0 .9.2 1.7.7 2.4.9 1.1 1.4 2.4 1.3 3.8.1 1.4-.4 2.8-1.3 3.8 0 .2-.3.3-.6.3zm8.3 0c-.4 0-.8-.2-1-.6-.2-.4-.1-.8.2-1.1.5-.7.8-1.5.7-2.4 0-.9-.2-1.7-.7-2.4-.9-1.1-1.4-2.4-1.3-3.8-.1-1.4.4-2.8 1.3-3.8.3-.3.6-.4 1-.3s.6.4.7.7 0 .7-.3 1c-.4.7-.6 1.5-.6 2.4 0 .9.2 1.7.7 2.4.9 1.1 1.4 2.4 1.3 3.8.1 1.4-.4 2.8-1.3 3.8-.2.2-.4.3-.7.3zm8.3 0c-.4 0-.8-.2-1-.6s-.1-.8.2-1.1c.5-.7.8-1.5.7-2.4 0-.9-.2-1.7-.7-2.4-.9-1.1-1.4-2.4-1.3-3.8-.1-1.4.4-2.8 1.3-3.8.3-.3.6-.4 1-.3s.6.4.7.7 0 .7-.3 1c-.5.7-.8 1.5-.7 2.4 0 .9.2 1.7.7 2.4.9 1.1 1.4 2.4 1.3 3.8.1 1.4-.4 2.8-1.3 3.8-.1.2-.3.3-.6.3z" fill="#18a090"/></svg>