<svg version="1.1" id="Слой_1" xmlns="http://www.w3.org/2000/svg" x="0" y="0" viewBox="0 0 50.1 50.1" xml:space="preserve"><style>.st0{fill:#fff}.st1{fill:#89ccff}.st2{fill:#23a79c}</style><g id="_x30_5_x2C__Direction_x2C__Arrow_x2C__directional_x2C__next_x2C__right_and_left_arrow"><path class="st0" d="M20.6 26.5l2.4 5.7-2.4 6c0-4.9-4-8.8-8.8-8.8l-1.9-4.2 1.9-4.6h2.9c3.3 0 5.9 2.7 5.9 5.9zm17.7-.9l1.7 4.7-1.7 4.1c-4.9 0-8.8 4-8.8 8.8l-1.9-6 1.9-5.7c0-3.3 2.6-5.9 5.9-5.9h2.9z"/><path class="st1" d="M49.1 30l-10.8 8.4V21.7L49.1 30zm-37.3 3.4L1 25.1l10.8-8.4v16.7z"/><path class="st0" d="M29.5 49.1h-8.8V11.8l4.4-3.4 4.4 3.4v37.3z"/><path class="st1" d="M25.1 1l8.4 10.8H16.8L25.1 1z"/><path class="st2" d="M33.4 12.8H16.7c-.4 0-.7-.2-.9-.5-.2-.3-.1-.7.1-1L24.3.5c.4-.5 1.2-.5 1.6 0l8.4 10.8c.2.3.3.7.1 1-.3.3-.6.5-1 .5zm-14.7-2h12.7L25 2.6l-6.3 8.2zm18.6 27.5V21.6c0-.4.2-.7.5-.9.3-.2.7-.1 1 .1l10.8 8.4c.5.4.5 1.2 0 1.6l-10.8 8.4c-.5.4-1.5-.1-1.5-.9zm2-14.7v12.7l8.2-6.4-8.2-6.3z"/><path class="st2" d="M29.5 41.3c-.5 0-1-.4-1-1v-8.8c0-3.8 3.1-6.9 6.9-6.9h2.9c.5 0 1 .4 1 1 0 .5-.4 1-1 1h-2.9c-2.7 0-4.9 2.2-4.9 4.9v8.8c0 .5-.5 1-1 1z"/><path class="st2" d="M29.5 45.2c-.5 0-1-.4-1-1v-1c0-5.4 4.4-9.8 9.8-9.8.5 0 1 .4 1 1s-.4 1-1 1c-4.3 0-7.9 3.5-7.9 7.9v1c.1.5-.4.9-.9.9zm-18.3-11L.4 25.8c-.5-.4-.5-1.2 0-1.6l10.8-8.4c.3-.2.7-.3 1-.1.3.2.5.5.5.9v16.7c0 .4-.2.7-.5.9-.3.3-.7.2-1 0zm-8.6-9.1l8.2 6.4V18.7l-8.2 6.4z"/><path class="st2" d="M20.6 36.4c-.5 0-1-.4-1-1v-8.8c0-2.7-2.2-4.9-4.9-4.9h-2.9c-.5 0-1-.4-1-1s.4-1 1-1h2.9c3.8 0 6.9 3.1 6.9 6.9v8.8c0 .5-.4 1-1 1z"/><path class="st2" d="M20.6 40.3c-.5 0-1-.4-1-1v-1c0-4.3-3.5-7.9-7.9-7.9-.5 0-1-.4-1-1 0-.5.4-1 1-1 5.4 0 9.8 4.4 9.8 9.8v1c.1.7-.3 1.1-.9 1.1z"/><path class="st2" d="M29.5 50.1h-8.8c-.5 0-1-.4-1-1V11.8c0-.5.4-1 1-1h8.8c.5 0 1 .4 1 1v37.3c0 .6-.5 1-1 1zm-7.9-1.9h6.9V12.8h-6.9v35.4z"/></g></svg>