<svg version="1.1" id="Capa_1" xmlns="http://www.w3.org/2000/svg" x="0" y="0" viewBox="0 0 60 59.8" xml:space="preserve"><style>.st2{fill:#3c5156}.st4{fill:#23a79c}.st5{fill:#0e897a}</style><path d="M55 12.1H0v34.6c0 1.7.8 3.4 2 4.6 1.3 1.2 2.9 1.9 4.7 1.9h29c.2 0 .5-.1.6-.3l19.3-19.3c.2-.2.3-.4.3-.6V13c0-.5-.4-.9-.9-.9z" fill="#e0e0e2"/><path d="M15.9 35.2h3.6l2.9-9.1 14-14h-3.3l-14 14zM55 12.1h-2.9v25.1l3.6-3.6c.2-.2.3-.4.3-.6V13c-.1-.5-.5-.9-1-.9z" fill="#c6c5ca"/><path class="st2" d="M40.1 35.9H15.7c-.5 0-.9-.4-.9-.9s.4-.9.9-.9h24.4c.5 0 .9.4.9.9s-.4.9-.9.9z"/><path d="M6.7 39.7c.4 0 .8 0 1.1.1V3.4c0-.5-.4-.9-.9-.9-3.8.1-6.9 3.2-6.9 7v36.1c.5-3.3 3.3-5.9 6.7-5.9z" fill="#919191"/><path class="st4" d="M47.8 11.3L42.5 6c-.2-.2-.4-.3-.6-.3s-.4.2-.6.3L21.8 25.5l6.6 6.4 19.4-19.4c.4-.3.4-.8 0-1.2z"/><path class="st5" d="M26 29.6l2.4 2.3 19.4-19.4c.3-.3.3-.9 0-1.2L46 9.5 26 29.6z"/><path d="M21.8 25.5c-.1.1-.1.2-.2.3L18.7 34c-.1.3 0 .7.2.9.2.2.4.3.6.3.1 0 .2 0 .3-.1l8.2-2.9c.2-.1.3-.2.4-.3l-6.6-6.4z" fill="#ffc89f"/><path d="M19.5 35.2c.1 0 .2 0 .3-.1l8.2-2.9c.2-.1.3-.2.4-.3L26 29.6 19.4 32l-.7 2c-.1.3 0 .7.2.9.2.2.4.3.6.3z" fill="#f7b081"/><path class="st2" d="M19.5 35.2c.1 0 .2 0 .3-.1l5.2-1.8-4.5-4.4-1.8 5.1c-.1.3 0 .7.2.9.2.2.4.3.6.3z"/><path d="M22.5 30.9L19.4 32l-.7 2c-.1.3 0 .7.2.9.2.2.4.3.6.3.1 0 .2 0 .3-.1l5.2-1.8-2.5-2.4z" fill="#304144"/><path d="M50.7 8.4l-5.3-5.3c-.3-.3-.9-.3-1.2 0l-3.5 3.5 6.5 6.5 3.5-3.5c.2-.2.3-.4.3-.6-.1-.2-.1-.4-.3-.6z" fill="#ff6137"/><path d="M44.8 10.8l.8.8 1.6 1.6 3.5-3.5c.2-.2.3-.4.3-.6 0-.2-.1-.5-.3-.6l-1.8-1.8-4.1 4.1z" fill="#e04f32"/><path d="M53.1 3.5L50.4.8c-.6-.5-1.3-.8-2-.8s-1.4.3-1.9.8l-1.7 1.7-.6.6-.6.6 6.5 6.5.9-.8 2.1-2.1c.5-.5.8-1.2.8-1.9s-.3-1.4-.8-1.9z" fill="#546f7a"/><path d="M43.5 3.8l2 1.9zm9.6-.3l-2.2-2.2c.4.5.5 1 .5 1.6 0 .7-.3 1.4-.8 1.9l-2 2.2-.9.9 2.4 2.4.9-.9 2.1-2.1c.5-.5.8-1.2.8-1.9s-.3-1.4-.8-1.9z" fill="#475d63"/><path class="st4" d="M59.5 28.1c-.3-.1-.7-.1-1 .2l-30 30c-.3.3-.3.6-.2 1s.5.5.8.5h30c.5 0 .9-.4.9-.9V29c0-.4-.2-.7-.5-.9zM43.1 52.7l9.6-9.6v9.6h-9.6z"/><path class="st5" d="M59.5 28.1c-.3-.1-.7-.1-1 .2l-2.3 2.3v29.2h2.9c.5 0 .9-.4.9-.9V29c0-.4-.2-.7-.5-.9z"/><path d="M60 38.9h-3.4c-.5 0-.9.4-.9.9s.4.9.9.9H60v-1.8zm0 4.4h-3.4c-.5 0-.9.4-.9.9s.4.9.9.9H60v-1.8zm0 4.4h-3.4c-.5 0-.9.4-.9.9s.4.9.9.9H60v-1.8zm0 4.4h-3.4c-.5 0-.9.4-.9.9s.4.9.9.9H60v-1.8z" fill="#c96e14"/></svg>