<svg version="1.1" id="Слой_1" xmlns="http://www.w3.org/2000/svg" x="0" y="0" viewBox="0 0 69.5 49.3" xml:space="preserve"><style>.st0{fill:#fff}.st1{fill:#23a79c}.st2{fill:#b54e08}</style><path class="st0" d="M.5 24.4l29.5 25 39.5-22.7-31.7-22L.5 24.4z"/><path class="st0" d="M18.2 39.4l11.8 10 23.4-13.5m1.7-1.1l.7-.4"/><path class="st1" d="M29.8 44c-.6 0-1.2-.1-1.8-.5-2.7-1.5-18.3-15-18.9-15.6-.4-.3-.5-1-.1-1.4.4-.4 1-.4 1.5-.1C15 30.3 27 40.6 29.1 41.8c.9.5 2.8-.2 3.8-1.5.7-1 .7-1.8-.1-2.6-3.4-2.7-16.8-14-16.9-14.1-.4-.3-.5-1-.1-1.4.4-.4 1-.5 1.5-.1.1.1 13.6 11.4 16.8 14.2 1.7 1.4 1.8 3.4.4 5.2-1.1 1.4-3 2.5-4.7 2.5z"/><path class="st2" d="M29.8 44.5c-.7 0-1.4-.2-2.1-.5-2.7-1.5-17.3-14.2-19-15.7-.6-.5-.7-1.5-.2-2.1v-.1c.6-.6 1.5-.7 2.2-.1 6.2 5.4 16.7 14.3 18.5 15.3.6.4 2.3-.3 3.1-1.4.7-.9.4-1.5-.1-1.8C29.3 35.5 17 25.2 15.6 24c-.6-.5-.7-1.5-.2-2.1v-.1c.6-.6 1.5-.7 2.2-.1.1.1 13.6 11.4 16.8 14.2 1.9 1.6 2.1 3.9.5 5.9-1.2 1.6-3.3 2.7-5.1 2.7zm-20-17.8c-.1 0-.3.1-.4.2-.1.1-.1.2-.1.3 0 .1.1.2.2.3.7.6 16.2 14.1 18.8 15.6.5.3 1 .4 1.5.4 1.5 0 3.3-.9 4.3-2.3 1.2-1.6 1.1-3.3-.4-4.5-3.2-2.8-16.7-14.1-16.8-14.2-.2-.2-.6-.2-.8 0-.1.1-.1.2-.1.3 0 .1.1.2.2.3 1.4 1.2 13.7 11.5 16.8 14.1 1.1.9 1.1 2.1.2 3.3-1 1.3-3.2 2.4-4.4 1.6-2.5-1.3-18.5-15.1-18.7-15.3-.1-.1-.2-.1-.3-.1z"/><path class="st1" d="M41.4 37.3c-.6 0-1.3-.1-1.8-.5-3-1.6-20.4-16.2-21.2-16.8-.5-.4-.5-1.1-.2-1.6.4-.5 1.1-.5 1.6-.1 5 4.2 18.5 15.3 20.8 16.6 1 .5 3-.4 4.1-1.8.8-1.1.7-2.1-.2-2.8-3.6-3-18.6-15.2-18.8-15.3-.5-.4-.6-1.1-.2-1.6.4-.5 1.1-.5 1.6-.2.2.1 15.2 12.3 18.8 15.3 1.8 1.5 2.1 3.8.7 5.8-1.2 1.7-3.3 3-5.2 3z"/><path class="st2" d="M41.4 37.8c-.7 0-1.4-.2-2.1-.5-3-1.7-20.5-16.3-21.2-16.9-.7-.6-.8-1.6-.2-2.3.6-.7 1.6-.8 2.3-.2 5 4.2 18.4 15.3 20.7 16.5.7.4 2.5-.4 3.4-1.6.8-1.1.3-1.7-.2-2.2-3.6-3-18.2-14.8-18.8-15.3-.7-.6-.8-1.6-.3-2.3.6-.7 1.6-.8 2.3-.2 1.6 1.3 15.3 12.4 18.8 15.3 2 1.7 2.3 4.3.7 6.5-1.1 2-3.4 3.2-5.4 3.2zM19.1 18.6c-.2 0-.4.1-.5.2-.2.2-.2.6.1.8 6.3 5.2 18.7 15.5 21 16.8.5.3 1 .4 1.6.4 1.7 0 3.6-1.1 4.8-2.7 1.3-1.8 1.1-3.8-.6-5.1-3.5-2.9-17.2-14-18.8-15.3-.3-.2-.7-.2-.9.1-.2.2-.2.6.1.8.6.5 15.2 12.3 18.8 15.3 1.2 1 1.3 2.2.3 3.5-1.1 1.5-3.4 2.7-4.7 2C38 34.1 24.5 23 19.5 18.8c-.1-.2-.2-.2-.4-.2z"/><path class="st1" d="M54 30.3c-.6 0-1.2-.1-1.8-.4-3-1.6-20.6-15.9-21.4-16.5-.5-.4-.6-1.1-.2-1.6.4-.5 1.1-.5 1.6-.2 5.1 4.1 18.7 15 21 16.3 1 .5 3-.4 4-1.9.8-1.1.7-2.1-.3-2.8-3.7-3-18.9-14.9-19-15-.5-.4-.6-1.1-.2-1.6.4-.5 1.1-.6 1.6-.2.2.1 15.3 12 19 15 1.9 1.5 2.2 3.7.7 5.8-.9 1.8-3 3.1-5 3.1z"/><path class="st2" d="M54 30.8c-.7 0-1.4-.2-2-.5-3-1.6-20.7-16-21.4-16.6-.7-.6-.8-1.6-.2-2.3.6-.7 1.6-.8 2.3-.2 5 4.1 18.6 15 20.9 16.2.7.4 2.5-.4 3.4-1.7.8-1.1.3-1.8-.2-2.1-3.3-2.7-16.3-12.9-18.9-14.9l-.1-.1c-.8-.6-.9-1.6-.4-2.3.6-.7 1.7-.8 2.4-.3.1.1 15.3 12 19 15 2.1 1.7 2.4 4.2.8 6.5-1.3 2-3.5 3.3-5.6 3.3zM31.6 11.9c-.2 0-.4.1-.5.2-.1.1-.1.3-.1.4 0 .2.1.3.2.4.7.6 18.4 14.9 21.3 16.5.5.2 1 .4 1.5.4 1.7 0 3.7-1.1 4.8-2.8 1.3-1.9 1-3.8-.6-5.1-3.7-3-18.9-14.9-19-15-.3-.2-.7-.2-.9.1-.1.1-.1.3-.1.4 0 .2.1.3.2.4l.1.1c2.6 2 15.6 12.2 18.9 14.9 1.2.9 1.3 2.2.4 3.5-1 1.5-3.3 2.8-4.7 2C50.3 26.8 32.2 12.2 32 12c-.1-.1-.3-.1-.4-.1z"/><path class="st1" d="M.5 20.6l10.2 8.6s5.3-4.5 14.7-4.1c9.4.4 28.2 3.2 37.4-6.9L38.1.5.5 20.6z"/><path class="st2" d="M10.7 29.7c-.1 0-.2 0-.3-.1L.2 21c-.2-.2-.2-.5-.1-.7 0-.1.1-.1.2-.1L37.9.1c.1-.1.4-.1.5 0l24.7 17.7c.2.2.3.5.1.7v.1c-8.2 8.9-23.6 7.9-33.7 7.3-1.5-.1-2.9-.2-4.1-.2-9.1-.4-14.3 3.9-14.4 4h-.3zm-9.3-9l9.3 7.8c1.3-1 6.5-4.3 14.7-4 1.2 0 2.6.1 4.1.2 9.8.6 24.5 1.6 32.5-6.5L38 1 1.4 20.7z"/><path class="st0" d="M15.6 23.4l-8-6.6"/><path class="st2" d="M15.6 23.9c-.1 0-.2 0-.3-.1l-8-6.6c-.3-.1-.3-.4-.2-.6.2-.2.5-.3.7-.1l8 6.6c.2.2.3.5.1.7 0 .1-.2.2-.3.1z"/><path class="st0" d="M18.4 25.8l-1.7-1.4"/><path class="st2" d="M18.4 26.3c-.1 0-.2 0-.3-.1l-1.7-1.4c-.2-.2-.3-.5-.1-.7.2-.2.5-.3.7-.1l1.7 1.4c.2.2.3.5.1.7-.1.1-.2.2-.4.2z"/><path class="st0" d="M26.2 17.1L18.4 11"/><path class="st2" d="M26.2 17.6c-.1 0-.2 0-.3-.1l-7.8-6.1c-.2-.2-.3-.5-.1-.7.2-.2.5-.3.7-.1l7.8 6.1c.2.2.3.5.1.7-.1.2-.3.2-.4.2z"/><path class="st0" d="M27.9 18.5l-.5-.4"/><path class="st2" d="M27.9 19c-.1 0-.2 0-.3-.1l-.5-.4c-.2-.2-.3-.5-.1-.7s.5-.3.7-.1l.5.4c.2.2.3.5.1.7-.1.1-.2.2-.4.2z"/><path class="st0" d="M37.2 25.7l-8.1-6.3"/><path class="st2" d="M37.2 26.2c-.1 0-.2 0-.3-.1l-8.1-6.3c-.2-.2-.3-.5-.1-.7.2-.2.5-.3.7-.1l8.1 6.3c.2.2.3.5.1.7-.1.2-.3.2-.4.2z"/><path class="st0" d="M43.1 16.3L28.6 5.6"/><path class="st2" d="M43.1 16.9c-.1 0-.2 0-.3-.1L28.3 6c-.2-.2-.3-.5-.1-.7.2-.2.5-.3.7-.1l14.5 10.7c.2.2.3.5.1.7-.1.2-.2.3-.4.3z"/><path class="st0" d="M44.4 17.3l-.2-.1"/><path class="st2" d="M44.4 17.8c-.1 0-.2 0-.3-.1l-.2-.1c-.2-.2-.3-.5-.1-.7.2-.2.5-.3.7-.1l.2.1c.2.2.3.5.1.7-.1.1-.3.2-.4.2z"/><path class="st0" d="M53.4 23.9l-7.3-5.4"/><path class="st2" d="M53.4 24.5c-.1 0-.2 0-.3-.1L45.8 19c-.2-.2-.3-.5-.1-.7.2-.2.5-.3.7-.1l7.3 5.4c.2.2.3.5.1.7-.1.1-.3.2-.4.2z"/><path class="st0" d="M12.6 19.9L8 22.4"/><path class="st2" d="M8.1 22.9c-.3 0-.5-.2-.5-.5 0-.2.1-.4.3-.5l4.6-2.5c.2-.1.6 0 .7.2s0 .6-.2.7l-4.6 2.5c-.2.1-.2.1-.3.1z"/><path class="st0" d="M15 18.6l-.9.5"/><path class="st2" d="M14.1 19.6c-.3 0-.5-.2-.5-.5 0-.2.1-.4.3-.5l.9-.5c.2-.1.6 0 .7.2s0 .6-.2.7l-.9.5c-.2.1-.2.1-.3.1z"/><path class="st0" d="M25.8 12.6l-9.1 5"/><path class="st2" d="M16.7 18.1c-.3 0-.5-.2-.5-.5 0-.2.1-.4.3-.5l9.1-5c.3-.1.6 0 .7.2.1.3 0 .6-.2.7L17 18c-.1.1-.2.1-.3.1z"/><path class="st0" d="M27.4 11.7l-.3.1"/><path class="st2" d="M27.2 12.4c-.3 0-.5-.2-.5-.5 0-.2.1-.4.3-.5l.3-.1c.2-.1.6 0 .7.2.1.2 0 .6-.2.7l-.3.1c-.1.1-.2.1-.3.1z"/><path class="st0" d="M42.1 3.6l-13 7.2"/><path class="st2" d="M29.1 11.3c-.3 0-.5-.2-.5-.5 0-.2.1-.4.3-.5l13-7.2c.2-.1.6 0 .7.2s0 .6-.2.7l-13 7.2c-.2.1-.3.1-.3.1z"/><path class="st0" d="M33.2 20.4L24.9 25"/><path class="st2" d="M24.9 25.5c-.3 0-.5-.2-.5-.5 0-.2.1-.4.3-.5L33 20c.3-.1.6 0 .7.2.1.3 0 .6-.2.7l-8.3 4.5c-.1.1-.2.1-.3.1z"/><path class="st0" d="M47.6 12.6l-12.8 6.9"/><path class="st2" d="M34.8 20.1c-.3 0-.5-.2-.5-.5 0-.2.1-.4.3-.5l12.8-6.9c.3-.1.6 0 .7.2.1.3 0 .6-.2.7L35.1 20c-.1 0-.2.1-.3.1z"/><path class="st0" d="M50.4 11.1l-1 .5"/><path class="st2" d="M49.4 12.1c-.3 0-.5-.2-.5-.5 0-.2.1-.4.3-.5l1-.5c.3-.1.6 0 .7.2.1.3 0 .6-.2.7l-1 .5c-.1.1-.2.1-.3.1z"/><path class="st0" d="M56.5 19.3l-11.2 6.1"/><path class="st2" d="M45.3 26c-.3 0-.5-.2-.5-.5 0-.2.1-.4.3-.5l11.2-6.1c.3-.1.6 0 .7.2.1.3 0 .6-.2.7l-11.2 6.1c-.1.1-.2.1-.3.1z"/><path class="st0" d="M58.5 18.2l-.2.1"/><path class="st2" d="M58.3 18.9c-.3 0-.5-.2-.5-.5 0-.2.1-.4.3-.5l.2-.1c.3-.1.6 0 .7.2.1.3 0 .6-.2.7l-.2.1c-.1 0-.2.1-.3.1z"/><path class="st0" d="M61 16.9l-1.1.6"/><path class="st2" d="M59.9 18c-.3 0-.5-.2-.5-.5 0-.2.1-.4.3-.5l1.1-.6c.3-.1.6 0 .7.2.1.3 0 .6-.2.7l-1.1.6c-.1.1-.2.1-.3.1z"/><path class="st0" d="M6.3 23.4l-1.5.8"/><path class="st2" d="M4.9 24.8c-.3 0-.5-.2-.5-.5 0-.2.1-.4.3-.5l1.4-.8c.2-.1.6-.1.7.2.1.2.1.6-.2.7l-1.5.8c-.1.1-.2.1-.2.1z"/></svg>