<svg version="1.1" id="Слой_1" xmlns="http://www.w3.org/2000/svg" x="0" y="0" viewBox="0 0 50 50" xml:space="preserve"><style>.st0{fill:#64e1dc}.st4{fill:#00c8c8}</style><path class="st0" d="M25 0C11.3 0 0 11.3 0 25s11.3 25 25 25 25-11.3 25-25S38.7 0 25 0z"/><path d="M50 25c0 13.7-11.3 25-25 25V0c13.7 0 25 11.3 25 25z" fill="#23a79c"/><path d="M25 6C14.5 6 6 14.5 6 25s8.6 19 19 19 19-8.6 19-19c0-10.5-8.5-19-19-19z" fill="#e0f4ff"/><path d="M44 25c0 10.5-8.6 19-19 19V6c10.5 0 19 8.5 19 19z" fill="#bbdcff"/><path class="st0" d="M23.5 11.8h2.9v2.9h-2.9v-2.9zm0 23.5h2.9v2.9h-2.9v-2.9zm-6.8-20.7l2.1 2.1-2.1 2.1-2.1-2.1 2.1-2.1z"/><path class="st4" d="M33.3 31.2l2.1 2.1-2.1 2.1-2.1-2.1 2.1-2.1z"/><path class="st0" d="M11.8 23.5h2.9v2.9h-2.9v-2.9z"/><path class="st4" d="M35.3 23.5h2.9v2.9h-2.9v-2.9z"/><path class="st0" d="M16.7 31.2l2.1 2.1-2.1 2.1-2.1-2.1 2.1-2.1z"/><path class="st4" d="M33.3 14.6l2.1 2.1-2.1 2.1-2.1-2.1 2.1-2.1z"/><path d="M30.2 28.1l-2.1 2.1-4.6-4.6v-7.9h2.9v6.7l3.8 3.7z" fill="#537983"/><path class="st4" d="M25 11.8h1.5v2.9H25v-2.9zm0 23.5h1.5v2.9H25v-2.9z"/><path d="M30.2 28.1l-2.1 2.1-3.1-3.1v-9.4h1.5v6.7l3.7 3.7z" fill="#3e5959"/></svg>