<svg version="1.1" id="Layer_1" xmlns="http://www.w3.org/2000/svg" x="0" y="0" viewBox="0 0 50 53.5" xml:space="preserve"><style>.st0{fill:#23a79c}.st4{fill:#fff}</style><path class="st0" d="M10.6 4.2h28.9v8.7H0V4.2h10.6z"/><path d="M39.5 12.9H0v32.4h39.5V12.9z" fill="#d9dffc"/><path d="M27.7 26.2H9.5c-.5 0-.8-.4-.8-.8s.4-.8.8-.8h18.1c.5 0 .8.4.8.8s-.3.8-.7.8zm-7.3 7.6H9.5c-.5 0-.8-.4-.8-.8 0-.5.4-.8.8-.8h10.9c.5 0 .8.4.8.8s-.3.8-.8.8z" fill="#a6b3dd"/><path d="M10.6 8.5c-.5 0-.8-.4-.8-.8V.8c0-.5.4-.8.8-.8s.8.4.8.8v6.8c.1.5-.3.9-.8.9zm18.3 0c-.5 0-.8-.4-.8-.8V.8c0-.5.4-.8.8-.8s.8.4.8.8v6.8c0 .5-.3.9-.8.9z" fill="#0e665b"/><path class="st4" d="M5.1 23.7c-.5 0-.8-.4-.8-.8V18c0-.5.4-.8.8-.8.5 0 .9.4.9.8v4.8c0 .5-.4.9-.9.9zm0 5.3c-.5 0-.8-.4-.8-.8v-.6c0-.5.4-.8.8-.8.5 0 .8.4.8.8v.6c.1.5-.3.8-.8.8z"/><path class="st0" d="M39.5 30.2c5.9.6 10.5 5.5 10.5 11.6 0 6.5-5.2 11.7-11.7 11.7-5.2 0-9.7-3.4-11.2-8.2-.3-1.1-.5-2.3-.5-3.5 0-6.5 5.2-11.7 11.7-11.7.4 0 .8 0 1.2.1z"/><path class="st4" d="M36.8 46.7c-.2 0-.4-.1-.6-.2L31.8 42c-.3-.3-.3-.9 0-1.2.3-.3.9-.3 1.2 0l3.8 3.8 7.2-6.9c.3-.3.9-.3 1.2 0 .3.3.3.9 0 1.2l-7.8 7.4c-.2.3-.4.4-.6.4z"/></svg>