<svg xmlns="http://www.w3.org/2000/svg" viewBox="0 0 512 512"><path d="M480.6 361.6c-1.3-1-96.6-69.7-122.7-64.8-12.5 2.2-19.6 10.7-33.9 27.8-2.3 2.8-7.8 9.3-12.1 14-9-3-17.9-6.5-26.4-10.8-44.1-21.5-79.7-57.1-101.1-101.1-4.2-8.5-7.8-17.4-10.8-26.4 4.7-4.3 11.3-9.9 14.1-12.2 17-14.2 25.5-21.4 27.7-33.9 4.5-25.9-64.1-121.8-64.8-122.7-6.3-9-16.3-14.7-27.3-15.5C95.4 16 16 119 16 136.3c0 1 1.5 103.5 127.8 232C272.2 494.5 374.7 496 375.7 496 393 496 496 416.6 496 388.8c-.8-10.9-6.5-20.9-15.4-27.2z"/></svg>