<svg xmlns="http://www.w3.org/2000/svg" viewBox="0 0 34 34.1"><path d="M6.9 22.7c3.4 4 7.4 7.2 12 9.4 1.8.8 4.1 1.8 6.7 2h.5c1.8 0 3.2-.6 4.3-1.9.4-.5.9-.9 1.4-1.4l1-1c1.5-1.6 1.5-3.6 0-5.1l-4.3-4.3c-.7-.7-1.6-1.1-2.5-1.1-.9 0-1.8.4-2.5 1.1L21.1 23c-.2-.1-.5-.3-.7-.4-.3-.1-.5-.3-.8-.4-2.3-1.5-4.4-3.4-6.4-5.8-1-1.3-1.7-2.4-2.2-3.5.7-.6 1.3-1.2 1.9-1.8l.7-.7c.8-.8 1.2-1.6 1.2-2.5s-.4-1.8-1.2-2.5l-2.1-2.1-.8-.8-1.4-1.4C8.6.4 7.7 0 6.8 0c-.9 0-1.7.4-2.5 1.1L1.6 3.7C.6 4.7.1 5.8 0 7.2c-.1 1.7.2 3.5 1 5.7 1.3 3.3 3.1 6.5 5.9 9.8zM1.8 7.4c0-1 .4-1.8 1.1-2.4l2.6-2.6c.4-.4.9-.6 1.3-.6s.9.2 1.3.6c.5.4.9.8 1.4 1.3.2.3.5.5.7.8l2.1 2.1c.5.4.7.9.7 1.3s-.2.9-.7 1.3l-.7.7c-.7.7-1.3 1.3-2 1.9-.6.6-.5 1.1-.4 1.6v.1c.5 1.3 1.3 2.6 2.5 4 2.1 2.6 4.4 4.6 6.8 6.2.3.2.6.4.9.5.3.1.5.3.8.4h.1c.2.1.5.2.7.2.6 0 .9-.4 1.1-.5l2.6-2.6c.4-.4.9-.6 1.3-.6.5 0 1 .3 1.3.6l4.3 4.3c.8.8.8 1.8 0 2.7l-.9.9-1.5 1.5c-.8.9-1.8 1.3-3 1.3h-.4c-2.3-.1-4.5-1.1-6.1-1.8-4.4-2.1-8.3-5.1-11.5-9-2.6-3.2-4.4-6.1-5.6-9.3-.7-1.9-1-3.5-.8-4.9z" fill="#fff"/></svg>